<?xml version="1.0" standalone="no"?>
<!DOCTYPE svg PUBLIC "-//W3C//DTD SVG 1.1//EN" "http://www.w3.org/Graphics/SVG/1.1/DTD/svg11.dtd" >
<svg xmlns="http://www.w3.org/2000/svg" xmlns:xlink="http://www.w3.org/1999/xlink" version="1.1">
<metadata>
Created by FontForge 20170731 at Mon Dec  7 15:24:49 1998
 By Aleksey,,,
(C) 1993 B &#38; P Graphics, Ltd.
</metadata>
<defs>
<font id="Expressa-DemiBold" horiz-adv-x="591" >
  <font-face 
    font-family="Expressa-DemiBold"
    font-weight="100"
    font-stretch="normal"
    units-per-em="1000"
    panose-1="0 0 0 0 0 0 0 0 0 0"
    ascent="800"
    descent="-200"
    x-height="491"
    cap-height="721"
    bbox="-106 -233 1134 946"
    underline-thickness="50"
    underline-position="-175"
    unicode-range="U+0020-F002"
  />
<missing-glyph horiz-adv-x="946" 
d="M59 0v946h828v-946h-828zM828 59v828h-710v-828h710z" />
    <glyph glyph-name=".notdef" horiz-adv-x="946" 
d="M59 0v946h828v-946h-828zM828 59v828h-710v-828h710z" />
    <glyph glyph-name="glyph1" horiz-adv-x="0" 
 />
    <glyph glyph-name="nonmarkingreturn" horiz-adv-x="290" 
 />
    <glyph glyph-name="space" unicode=" " horiz-adv-x="290" 
 />
    <glyph glyph-name="exclam" unicode="!" horiz-adv-x="237" 
d="M118 141q33 0 55 -22t22 -55q0 -32 -22.5 -54.5t-54.5 -22.5t-55 22q-11 11 -16.5 24.5t-5.5 30.5q0 32 22.5 54.5t54.5 22.5zM61 721h116v-509h-116v509z" />
    <glyph glyph-name="quotedbl" unicode="&#x22;" horiz-adv-x="385" 
d="M102 575q-41 10 -59 28q-16 18 -16 50q0 31 21.5 53.5t53.5 22.5q34 0 57.5 -29t23.5 -70q0 -74 -81 -136v81zM279 575q-41 10 -59 28q-16 18 -16 50q0 31 21.5 53.5t53.5 22.5q34 0 57.5 -29t23.5 -70q0 -77 -81 -136v81z" />
    <glyph glyph-name="numbersign" unicode="#" horiz-adv-x="631" 
d="M51 274h115l37 172h-116l13 60h115l44 207h60l-44 -207h96l44 207h60l-44 -207h115l-12 -60h-115l-37 -172h115l-13 -60h-115l-44 -207h-60l44 207h-96l-44 -207h-60l44 207h-115zM322 274l37 172h-97l-36 -172h96z" />
    <glyph glyph-name="dollar" unicode="$" horiz-adv-x="328" 
d="M22 119l23 -7l17 -2q39 0 67.5 25t28.5 63q0 15 -5 30q-3 19 -10 31l-89 180q-23 46 -23 96q0 22 5 42l6 24q6 12 8 18q9 23 28 42q16 18 34 29q12 7 48 22v80h71l11 -66h19l19 -1q11 0 26 -5v-121l-19 4l-15 1q-42 0 -72 -24q-28 -25 -28 -60q0 -31 16 -63l86 -177
q30 -63 30 -115q0 -114 -121 -157v-78h-72v59l-25 -1h-12q-7 0 -18.5 1.5t-15.5 2.5t-18 6v121z" />
    <glyph glyph-name="percent" unicode="%" horiz-adv-x="876" 
d="M543 721h74l-283 -721h-73zM214 730q79 0 132.5 -54.5t53.5 -137.5q0 -81 -53.5 -137t-132.5 -56q-78 0 -131.5 55t-53.5 138q0 82 52.5 137t132.5 55zM661 376q80 0 132.5 -54.5t52.5 -136.5t-53 -138t-132 -56q-76 0 -130.5 56t-54.5 138q0 81 52.5 136t132.5 55z
M565 182q0 -28 6 -48.5t20 -36.5q26 -31 71 -31q43 0 69.5 31t26.5 85q0 55 -26 88t-70 33q-42 0 -71 -33q-26 -32 -26 -88zM118 534q0 -52 26 -84q28 -31 71 -31t69.5 31t26.5 85q0 55 -26 88t-70 33q-42 0 -69.5 -33.5t-27.5 -88.5z" />
    <glyph glyph-name="ampersand" unicode="&#x26;" horiz-adv-x="496" 
d="M129 464q0 65 44 112t106 47h14l16 -114q-54 -18 -54 -57q0 -32 36 -56l-43 -99q-48 -6 -73 -31t-25 -68q0 -39 28 -67t66 -28q39 0 66 27t27 67q0 51 -46 87l42 99q35 0 58 33l84 -68q-9 -23 -19 -34l-16 -14l-23 -10q20 -20 27 -39.5t7 -47.5q0 -92 -59 -154t-149 -62
q-87 0 -151.5 62t-64.5 148q0 47 19.5 87.5t46.5 61.5l36 26l25 12l-19 40q-6 20 -6 40z" />
    <glyph glyph-name="quotesingle" unicode="'" horiz-adv-x="208" 
d="M102 581q-41 10 -59 27q-16 18 -16 50q0 31 21.5 53.5t53.5 22.5q34 0 57 -29q24 -27 24 -69q0 -77 -81 -137v82z" />
    <glyph glyph-name="parenleft" unicode="(" horiz-adv-x="234" 
d="M221 776l-20 -65l-17 -61l-23 -111q-15 -80 -15 -189q0 -108 11 -173l15 -82l12 -52q10 -39 37 -108h-116l-19 61l-31 133q-8 48 -10 58q-5 31 -5 55l-4 107l3 92l9 83l11 64l13 64l16 58l22 66h111z" />
    <glyph glyph-name="parenright" unicode=")" horiz-adv-x="234" 
d="M32 0q17 56 36.5 157t19.5 204q0 106 -12 174l-15 81l-9 40q-3 13 -5 22.5t-11 31.5q-9 32 -11 38q-8 19 -12 28h116l18 -60q18 -64 30 -130q9 -50 12.5 -73.5t3.5 -48.5l5 -101l-3 -93q0 -22 -1 -29.5t-9 -54.5l-10 -63q-3 -25 -13 -57l-16 -60q-5 -19 -9.5 -32.5
t-13.5 -38.5h-110z" />
    <glyph glyph-name="asterisk" unicode="*" horiz-adv-x="437" 
d="M55 635l126 -49v135h75v-135l128 46l25 -72l-128 -43l78 -106l-62 -46l-79 113l-82 -114l-60 47l80 105l-127 45z" />
    <glyph glyph-name="plus" unicode="+" 
d="M50 390h192v197h107v-197h193v-107h-193v-191h-107v191h-192v107z" />
    <glyph glyph-name="comma" unicode="," horiz-adv-x="208" 
d="M102 -13q-41 10 -59 28q-16 18 -16 50q0 31 21.5 53.5t53.5 22.5q34 0 57 -29q24 -27 24 -70q0 -76 -81 -135v80z" />
    <glyph glyph-name="hyphen" unicode="-" horiz-adv-x="339" 
d="M29 352h281v-110h-281v110z" />
    <glyph glyph-name="period" unicode="." horiz-adv-x="208" 
d="M104 141q32 0 54 -23q23 -21 23 -54q0 -32 -22.5 -54.5t-54.5 -22.5t-55 22q-11 11 -16.5 24.5t-5.5 30.5q0 32 22.5 54.5t54.5 22.5z" />
    <glyph glyph-name="slash" unicode="/" horiz-adv-x="370" 
d="M237 721h106l-212 -721h-104z" />
    <glyph glyph-name="zero" unicode="0" 
d="M75 611q33 54 92.5 87.5t127.5 33.5q66 0 122.5 -29.5t104.5 -102.5t48 -252q0 -159 -44 -230.5t-102 -102.5t-128 -31q-66 0 -121.5 27.5t-104 97t-48.5 249.5q0 162 53 253zM150 359q0 -123 38 -189t108 -66q69 0 108 66q18 32 28 80t10 110q0 118 -38 182t-109 64
q-70 0 -107.5 -64t-37.5 -183z" />
    <glyph glyph-name="one" unicode="1" 
d="M230 721h131v-721h-131v721z" />
    <glyph glyph-name="two" unicode="2" 
d="M86 197q6 62 46 103t85.5 70t112.5 54l20 7q51 21 51 83q0 40 -32 69q-31 31 -72 31t-70.5 -30.5t-29.5 -74.5q0 -20 12 -46l-110 -32l-17 47l-4 42q0 87 67 151t158 64q89 0 153 -64t64 -154q0 -60 -21.5 -94t-59 -64t-64.5 -42l-71 -29q-78 -33 -88 -94l-12 -82h291
v-112h-424z" />
    <glyph glyph-name="three" unicode="3" 
d="M157 150q56 -48 105 -48q41 0 75.5 33.5t34.5 76.5q0 45 -38.5 78t-93.5 33l-27 -1l-11 104h21q57 0 95.5 29t38.5 74q0 33 -29 61q-15 14 -30 21t-34 7q-46 0 -90 -34l-70 70q74 80 166 80q85 0 144.5 -61t59.5 -149q0 -57 -32 -101l-21 -20l-30 -18q35 -20 66.5 -57
t31.5 -109q0 -93 -66 -163t-158 -70q-72 0 -116 32l-51 40l-26 28z" />
    <glyph glyph-name="four" unicode="4" 
d="M29 285q8 57 22 102q9 29 17.5 50.5t23.5 54.5q7 15 21 48q8 19 12.5 31.5t4.5 36.5q0 39 -7 78l125 3l6 -40l1 -34q0 -81 -40 -161l-41 -81q-10 -19 -19 -71h166v419h132v-419h73v-113h-73v-189h-132v189h-299v38q0 19 7 58z" />
    <glyph glyph-name="five" unicode="5" 
d="M166 211q13 -41 34 -65q41 -43 94 -43q51 0 92 41t41 94t-41 94t-95 41q-32 0 -51 -11q-22 -11 -51 -43l-117 50l101 352h318v-112h-215l-41 -142l43 12l38 3q96 0 162.5 -68t66.5 -169q0 -108 -73 -183t-178 -75q-29 0 -50 4t-48 16q-47 20 -77.5 52t-45.5 60
q-14 30 -27 77z" />
    <glyph glyph-name="six" unicode="6" 
d="M304 493q107 0 177.5 -69.5t70.5 -174.5q0 -109 -75.5 -185.5t-185.5 -76.5q-107 0 -179.5 72.5t-72.5 181.5q0 32 6.5 61t20.5 52l209 367h138l-130 -228h21zM164 241q0 -54 39 -93t95 -39q55 0 95.5 39.5t40.5 94.5q0 56 -39.5 97.5t-93.5 41.5t-95.5 -42.5
t-41.5 -98.5z" />
    <glyph glyph-name="seven" unicode="7" 
d="M65 721h419v-140l-233 -581h-139l243 609h-290v112z" />
    <glyph glyph-name="eight" unicode="8" 
d="M106 440q-20 40 -20 86q0 86 59 146t146 60q85 0 148.5 -61.5t63.5 -144.5q0 -38 -14.5 -69t-22.5 -40l-24 -27l28 -26l34 -44q25 -36 25 -106q0 -96 -68 -162.5t-168 -66.5t-165 65t-65 165q0 71 24.5 108.5t59.5 65.5l-26 26zM272 328q-46 -11 -71.5 -40.5t-25.5 -70.5
q0 -47 38 -84.5t83 -37.5t80.5 36.5t35.5 84.5q0 36 -16.5 64t-34.5 34l-23 7l-24 4v111q22 5 30.5 10.5t27.5 24.5q17 19 17 53q0 39 -28 66.5t-66 27.5t-66.5 -27.5t-28.5 -64.5q0 -65 72 -91v-107z" />
    <glyph glyph-name="nine" unicode="9" 
d="M286 226q-105 0 -176 69.5t-71 174.5q0 110 76 186t186 76q105 0 178 -72t73 -181q0 -63 -28 -113l-207 -366h-139l130 227zM158 476q0 -56 39 -97.5t94 -41.5q53 0 94.5 42.5t41.5 98.5q0 54 -39 93t-95 39q-57 0 -96 -39t-39 -95z" />
    <glyph glyph-name="colon" unicode=":" horiz-adv-x="237" 
d="M118 141q33 0 55 -22t22 -55q0 -32 -22.5 -54.5t-54.5 -22.5t-55 22q-11 11 -16.5 24.5t-5.5 30.5q0 32 22.5 54.5t54.5 22.5zM118 501q33 0 55 -22t22 -55q0 -32 -22.5 -54.5t-54.5 -22.5t-55 22q-11 11 -16.5 24.5t-5.5 30.5q0 33 22 55t55 22z" />
    <glyph glyph-name="semicolon" unicode=";" horiz-adv-x="237" 
d="M118 501q33 0 55 -22t22 -55q0 -32 -22.5 -54.5t-54.5 -22.5t-55 22q-11 11 -16.5 24.5t-5.5 30.5q0 33 22 55t55 22zM116 -13q-41 10 -59 28q-16 18 -16 50t22 54t53 22q34 0 57 -29q24 -27 24 -70q0 -78 -81 -135v80z" />
    <glyph glyph-name="less" unicode="&#x3c;" horiz-adv-x="309" 
d="M27 295l182 210l73 -68l-163 -191l163 -190l-73 -69l-182 211v97z" />
    <glyph glyph-name="equal" unicode="=" 
d="M50 311h492v-103h-492v103zM50 464h492v-103h-492v103z" />
    <glyph glyph-name="greater" unicode="&#x3e;" horiz-adv-x="309" 
d="M190 246l-163 191l74 68l181 -210v-97l-181 -211l-74 69z" />
    <glyph glyph-name="question" unicode="?" horiz-adv-x="481" 
d="M241 141q32 0 54 -23q23 -21 23 -54q0 -31 -23 -54t-55 -23t-55 22q-11 11 -16.5 24.5t-5.5 30.5q0 31 23 54t55 23zM298 212h-115v189l36 -2q46 0 84 33.5t38 77.5q0 38 -30 69t-71 31q-42 0 -72 -30.5t-30 -73.5l3 -24l-114 -17l-5 46q0 89 65 155t156 66t153.5 -64
t62.5 -160q0 -87 -37 -126.5t-61 -53.5q-19 -9 -63 -22v-94z" />
    <glyph glyph-name="at" unicode="@" horiz-adv-x="852" 
d="M439 194q-37 -43 -83 -43q-23 0 -76 23t-53 167l4 35q9 59 36 107t65.5 76t79.5 28q30 0 54 -15t36 -45l8 51h51l-36 -210l-13 -83l-3 -35q0 -19 4 -27q8 -28 40 -28l14 3q10 3 21 11t29 29t35 56q6 14 11.5 30.5t8.5 30.5l6 42l1 29q0 110 -71 181t-179 71
q-25 0 -90.5 -9.5t-139 -99t-73.5 -214.5v-18l2 -18q0 -28 6.5 -51.5t33.5 -81t97 -104t152 -46.5q60 0 115 22.5t88 52.5l45 42l27 34l15 -50l-24 -29q-116 -123 -271 -123q-141 0 -238.5 89.5t-107.5 174.5t-10 110q0 105 47.5 189.5t126 129.5t126.5 51t71 6
q133 0 221.5 -87.5t88.5 -217.5l-1 -34q0 -8 -2 -20.5t-9 -42.5q-9 -51 -45.5 -102t-75.5 -69q-36 -15 -61 -15q-35 0 -57 18t-27 49v14q-8 -19 -20 -34zM351 197l12 -1q26 0 45 22.5t33 58.5l19 60l8 34l4 18l5 34l1 21q0 17 2 24v12q-3 26 -21.5 43.5t-42.5 17.5
q-10 0 -15.5 -1.5t-21.5 -7.5t-34.5 -30.5t-30.5 -60.5q-6 -17 -9.5 -30t-7.5 -32l-6 -44l-1 -43q0 -45 15.5 -67.5t45.5 -27.5z" />
    <glyph glyph-name="A" unicode="A" horiz-adv-x="579" 
d="M38 489q0 112 68 177.5t184 65.5q114 0 183 -66t69 -177v-489h-130v264h-244v-264h-130v489zM168 371h244v125q0 56 -33.5 90.5t-88.5 34.5q-57 0 -89.5 -34t-32.5 -91v-125z" />
    <glyph glyph-name="B" unicode="B" horiz-adv-x="561" 
d="M38 721h295q78 0 134.5 -58t56.5 -140q0 -63 -23.5 -95.5t-32.5 -40.5l-29 -22q30 -16 61 -49t31 -107q0 -87 -58 -148t-141 -61h-294v721zM169 418h145q31 0 56.5 30.5t25.5 67.5q0 39 -24 66t-61 27h-142v-191zM169 112h145q32 0 61 30q27 30 27 69t-26 68t-62 29h-145
v-196z" />
    <glyph glyph-name="C" unicode="C" horiz-adv-x="405" 
d="M384 605l-54 -7q-50 -12 -91 -48.5t-64.5 -88.5t-23.5 -106q0 -115 48 -154l58 -44l25 -13l44 -20l58 -14v-119l-31 1q-14 0 -67 9.5t-123.5 66.5t-107 132.5t-36.5 158.5q0 84 36 159t81 111l65 50q19 12 50 25l56 19q6 1 30.5 5t46.5 6v-129z" />
    <glyph glyph-name="D" unicode="D" horiz-adv-x="584" 
d="M38 706l77 20q32 6 63 6q164 0 275 -107.5t111 -269.5q0 -160 -107 -264.5t-270 -104.5q-19 0 -36 1t-34 4t-31.5 7t-47.5 16v692zM168 117l27 -1q96 0 166 71.5t70 169.5q0 99 -71 172.5t-168 73.5l-24 -1v-485z" />
    <glyph glyph-name="E" unicode="E" horiz-adv-x="416" 
d="M389 616l-42 -7q-56 -13 -103 -54l-24 -26q-12 -12 -24 -30l-17 -32l-15 -48h225v-115h-225l13 -43q18 -51 50 -77l43 -35l32 -18q8 -4 13 -6t26 -8l48 -10v-120h-16q-10 0 -22 2q-12 0 -35 6q-75 11 -145 65t-111 135.5t-41 164.5q0 87 40.5 166.5t93.5 120.5t90.5 58.5
t69.5 25.5q16 3 34 5t42 2v-122z" />
    <glyph glyph-name="F" unicode="F" horiz-adv-x="362" 
d="M38 537q0 78 51.5 131t128.5 53h132v-112h-98q-36 0 -60 -24t-24 -62v-113h182v-115h-182v-295h-130v537z" />
    <glyph glyph-name="G" unicode="G" horiz-adv-x="797" 
d="M585 525l-20 20q-9 10 -51 40t-116 30q-100 0 -174.5 -75.5t-74.5 -178.5q0 -101 75 -177t177 -76q50 0 98 21.5t75 52t40 54.5q8 17 23 67l-253 -1v113h387l5 -34l1 -26q0 -147 -115 -258t-267 -111q-154 0 -265 110t-111 264t113 266t268 112q112 0 177 -43.5
t112 -96.5z" />
    <glyph glyph-name="H" unicode="H" horiz-adv-x="570" 
d="M38 721h128l2 -257h234v257h130v-721h-130v351h-234v-351h-130v721z" />
    <glyph glyph-name="I" unicode="I" horiz-adv-x="204" 
d="M38 721h130v-721h-130v721z" />
    <glyph glyph-name="J" unicode="J" horiz-adv-x="291" 
d="M-11 115l34 -5q45 0 72.5 29t27.5 73v509h130v-525q0 -85 -61.5 -145t-149.5 -60h-30l-23 4v120z" />
    <glyph glyph-name="K" unicode="K" horiz-adv-x="545" 
d="M38 721h127v-297h7q106 0 164 50.5t58 141.5v105h129v-115q0 -174 -182 -238q41 -17 81.5 -45t70 -80t29.5 -111v-132h-130v115q0 81 -58 137.5t-144 56.5l-25 -1v-308h-127v721z" />
    <glyph glyph-name="L" unicode="L" horiz-adv-x="341" 
d="M218 0q-75 0 -127.5 54t-52.5 129v538h130v-523q0 -38 23 -62t61 -24h98v-112h-132z" />
    <glyph glyph-name="M" unicode="M" horiz-adv-x="808" 
d="M38 536q0 83 56 140t138 57q38 0 66 -11q29 -9 49 -24q18 -11 35 -28l22 -21q7 9 12.5 14.5t10.5 9.5q9 9 46 34.5t102 25.5q80 0 138 -57t58 -140v-536h-130v528q0 35 -27.5 62t-64.5 27q-36 0 -60 -24.5t-24 -64.5v-528h-129v528q0 33 -24 61t-57 28t-61 -28
q-26 -28 -26 -61v-528h-130v536z" />
    <glyph glyph-name="N" unicode="N" horiz-adv-x="576" 
d="M38 491q0 106 72 175t178 69q107 0 178.5 -69t71.5 -175v-491h-129v496q0 47 -35.5 84.5t-84.5 37.5q-47 0 -84 -36t-37 -86v-496h-130v491z" />
    <glyph glyph-name="O" unicode="O" horiz-adv-x="794" 
d="M396 742q159 0 268 -108t109 -268t-108.5 -270t-266.5 -110t-268.5 111.5t-110.5 271.5q0 158 108.5 265.5t268.5 107.5zM149 364q0 -104 72 -180t176 -76q102 0 174 75t72 183q0 107 -71 182t-172 75q-103 0 -177 -76.5t-74 -182.5z" />
    <glyph glyph-name="P" unicode="P" horiz-adv-x="545" 
d="M324 721q95 0 153 -58t58 -154q0 -93 -59.5 -153.5t-154.5 -60.5h-153v-295h-130v721h286zM166 604l2 -193h149q85 0 85 93q0 48 -23 74t-64 26h-149z" />
    <glyph glyph-name="Q" unicode="Q" horiz-adv-x="783" 
d="M759 74l-92 -90l-70 73q-66 -42 -107 -56.5t-98 -14.5q-153 0 -263 113t-110 271q0 156 108.5 264t268.5 108q157 0 267 -107t110 -261q0 -63 -15.5 -109t-67.5 -119zM149 366q0 -108 73 -184.5t177 -76.5q101 0 172.5 76t71.5 185q0 108 -71 183.5t-172 75.5
q-100 0 -175.5 -77t-75.5 -182z" />
    <glyph glyph-name="R" unicode="R" horiz-adv-x="571" 
d="M38 721h288q88 0 147.5 -57.5t59.5 -143.5q0 -74 -48 -133l-15 -18l-24 -20q22 -9 31 -15.5t33 -35.5q11 -13 17 -35t6 -53v-210h-130v195q0 42 -26 72.5t-61 30.5h-148v-298h-130v721zM166 609l2 -196h140q39 0 67 27t28 69q0 41 -27 70.5t-66 29.5h-144z" />
    <glyph glyph-name="S" unicode="S" horiz-adv-x="323" 
d="M19 119l25 -8l19 -2q41 0 69.5 22.5t28.5 56.5q0 11 -5 28.5t-7.5 25t-7.5 17.5l-89 180q-23 46 -23 96q0 83 60 138t152 55l36 -3l27 -5v-121l-37 5q-41 0 -73 -21q-29 -21 -29 -53q0 -15 5.5 -34.5t15.5 -38.5l86 -177q31 -64 31 -114q0 -75 -60.5 -126.5t-154.5 -51.5
q-28 0 -69 10v121z" />
    <glyph glyph-name="T" unicode="T" horiz-adv-x="425" 
d="M-11 721h446v-112h-158v-609h-130v609h-158v112z" />
    <glyph glyph-name="U" unicode="U" horiz-adv-x="575" 
d="M168 721v-506q0 -48 34 -82q35 -32 87 -32q51 0 85.5 33.5t34.5 86.5v500h129v-492q0 -106 -71 -174.5t-179 -68.5t-179 68t-71 170v497h130z" />
    <glyph glyph-name="V" unicode="V" horiz-adv-x="539" 
d="M125 721l94 -580q9 -47 50 -47q35 0 46 51l99 576h131l-111 -620q-18 -110 -159 -110q-155 0 -176 113l-104 617h130z" />
    <glyph glyph-name="W" unicode="W" horiz-adv-x="813" 
d="M350 18q-56 -32 -116 -32q-40 0 -75 13t-64 40q-57 53 -57 131v551h130v-543q0 -28 26.5 -52.5t59.5 -24.5q32 0 60.5 27.5t28.5 60.5v532h127v-532q0 -33 27.5 -60.5t62.5 -27.5q32 0 59 24.5t27 52.5v543h130v-551q0 -76 -58 -130t-141 -54q-59 0 -98 23.5t-70 57.5
l-31 -30z" />
    <glyph glyph-name="X" unicode="X" horiz-adv-x="584" 
d="M168 721v-178q0 -43 38 -75.5t87 -32.5q48 0 86 32t38 75v179h130v-188q0 -47 -22.5 -84t-73.5 -76q50 -32 74 -73q22 -41 22 -103v-197h-130v198q0 51 -37 85.5t-88 34.5q-54 0 -89 -35t-35 -89v-194h-130v201q0 107 96 172q-96 66 -96 161v187h130z" />
    <glyph glyph-name="Y" unicode="Y" horiz-adv-x="521" 
d="M125 721l35 -259q5 -42 31.5 -66t67.5 -24q86 0 101 96l35 253h130l-80 -578q-9 -66 -61 -110.5t-121 -44.5q-40 0 -76 14.5t-66 43.5q-29 30 -43 61q-13 33 -13 88h126l5 -23q3 -26 21 -45t42 -19q23 0 43 21q17 20 23 57l11 94q-62 -21 -113 -21q-75 0 -127.5 46.5
t-61.5 121.5l-39 294h130z" />
    <glyph glyph-name="Z" unicode="Z" horiz-adv-x="524" 
d="M91 0q-34 0 -54.5 15.5t-20.5 43.5q0 15 22 52l297 493h-295v117h408q27 0 43.5 -19t16.5 -47q0 -20 -15 -47l-302 -492h299v-116h-399z" />
    <glyph glyph-name="bracketleft" unicode="[" horiz-adv-x="245" 
d="M52 814h186v-70h-84v-767h84v-71h-186v908z" />
    <glyph glyph-name="backslash" unicode="\" horiz-adv-x="335" 
d="M146 720l126 -720h-108l-126 720h108z" />
    <glyph glyph-name="bracketright" unicode="]" horiz-adv-x="245" 
d="M8 -23h84v767h-84v70h186v-908h-186v71z" />
    <glyph glyph-name="asciicircum" unicode="^" horiz-adv-x="355" 
d="M104 681h145l105 -144h-118l-59 99l-58 -99h-119z" />
    <glyph glyph-name="underscore" unicode="_" horiz-adv-x="471" 
d="M38 0h360v-36h-360v36z" />
    <glyph glyph-name="grave" unicode="`" horiz-adv-x="218" 
d="M158 681l60 -144h-98l-120 144h158z" />
    <glyph glyph-name="a" unicode="a" horiz-adv-x="570" 
d="M274 -9q-107 0 -181 72.5t-74 180.5q0 110 76 186t186 76t181 -76t71 -198v-232h-117v228q0 74 -38 118.5t-101 44.5q-57 0 -98 -42t-41 -99q0 -61 43.5 -103t107.5 -42q22 0 37 3.5t44 19.5v-118q-34 -12 -54 -15z" />
    <glyph glyph-name="b" unicode="b" horiz-adv-x="569" 
d="M292 499q112 0 184 -71t72 -183q0 -110 -71.5 -182.5t-184.5 -72.5t-183.5 72t-70.5 191v468h116v-465q0 -65 40 -108t100 -43q56 0 97 39.5t41 97.5q0 61 -44 102t-110 41q-31 0 -76 -19v118l48 12z" />
    <glyph glyph-name="c" unicode="c" horiz-adv-x="326" 
d="M305 385l-23 1q-56 0 -97 -41t-41 -97t42.5 -99.5t97.5 -43.5l21 1v-112l-22 -2q-111 0 -187.5 71t-76.5 178q0 105 75.5 181.5t181.5 76.5l29 -1v-113z" />
    <glyph glyph-name="d" unicode="d" horiz-adv-x="569" 
d="M365 366l-42 15l-33 4q-67 0 -110.5 -40.5t-43.5 -102.5q0 -57 40 -97t98 -40q60 0 100 43t40 108v465h117v-468q0 -117 -70 -190t-184 -73q-115 0 -186.5 71t-71.5 184q0 111 72.5 182.5t184.5 71.5l39 -3l50 -12v-118z" />
    <glyph glyph-name="e" unicode="e" horiz-adv-x="521" 
d="M243 145l-54 67l183 139q-38 44 -92 44q-60 0 -106 -46t-46 -105q0 -57 43 -100t100 -43q75 0 129 73l94 -54l-32 -47q-8 -11 -54.5 -46t-135.5 -35q-109 0 -181 71.5t-72 180.5q0 110 72.5 184t183.5 74q78 0 125.5 -32.5t65 -54t40.5 -70.5z" />
    <glyph glyph-name="f" unicode="f" horiz-adv-x="245" 
d="M38 514q0 101 57.5 160t159.5 59l42 -3v-102l-32 3q-49 0 -80 -26.5t-31 -70.5v-43h91v-107h-91v-384h-116v514z" />
    <glyph glyph-name="g" unicode="g" horiz-adv-x="571" 
d="M271 -5q-111 0 -181.5 67t-70.5 176q0 113 75.5 190t187.5 77q110 0 181 -74.5t71 -191.5v-198q0 -119 -80.5 -192t-209.5 -73l-49 3l-62 16v113l55 -16l42 -4q89 0 136.5 40t47.5 116v196q0 64 -40 107t-99 43q-57 0 -97 -40t-40 -100q0 -64 42.5 -104.5t109.5 -40.5
q25 0 34.5 2.5t22.5 8t30 13.5v-116l-55 -14z" />
    <glyph glyph-name="h" unicode="h" horiz-adv-x="534" 
d="M38 721h116v-269l29 20l39 19q27 11 72 11q90 0 146 -54.5t56 -142.5v-305h-117v280q0 44 -30 75t-77 31q-49 0 -83.5 -31.5t-34.5 -75.5v-279h-116v721z" />
    <glyph glyph-name="i" unicode="i" horiz-adv-x="190" 
d="M37 491h117v-491h-117v491zM95 730q32 0 54 -23q23 -21 23 -54q0 -32 -22 -54t-55 -22q-31 0 -54 21.5t-23 54.5t22 55t55 22z" />
    <glyph glyph-name="j" unicode="j" horiz-adv-x="190" 
d="M-106 -111l27 -1q118 0 118 97v506h116v-505q0 -99 -56.5 -153t-162.5 -54l-42 3v107zM95 730q32 0 54 -23q23 -21 23 -54q0 -32 -22 -54t-55 -22q-31 0 -54 21.5t-23 54.5t22 55t55 22z" />
    <glyph glyph-name="k" unicode="k" horiz-adv-x="491" 
d="M38 721h116l1 -409l20 -1q65 0 114.5 38.5t55.5 90.5l3 51h118l-4 -67q0 -47 -32.5 -91t-86.5 -70l24 -13q8 -4 32 -24.5t45 -64.5t21 -91l2 -70h-119l-2 67q0 63 -49 102.5t-126 39.5l-17 -1v-208h-116v721z" />
    <glyph glyph-name="l" unicode="l" horiz-adv-x="191" 
d="M38 721h116v-721h-116v721z" />
    <glyph glyph-name="m" unicode="m" horiz-adv-x="737" 
d="M38 306q0 82 55.5 138.5t138.5 56.5q78 0 136 -58q64 58 140 58q79 0 135 -56.5t56 -138.5v-306h-115v305q0 36 -21.5 59t-58.5 23q-36 0 -57 -21.5t-21 -59.5v-306h-115v306q0 35 -21 59q-22 22 -56 22q-36 0 -58 -22t-22 -60v-305h-116v306z" />
    <glyph glyph-name="n" unicode="n" horiz-adv-x="538" 
d="M38 278q0 98 64.5 159.5t166.5 61.5t167 -61t65 -160v-278h-116v275q0 50 -32.5 83t-82.5 33q-52 0 -84 -32t-32 -84v-275h-116v278z" />
    <glyph glyph-name="o" unicode="o" horiz-adv-x="547" 
d="M274 505q106 0 180 -74t74 -182q0 -109 -74 -183.5t-182 -74.5q-104 0 -178.5 75.5t-74.5 182.5q0 108 74 182t181 74zM138 246q0 -57 40.5 -100t95.5 -43q53 0 94 43t41 102q0 58 -40 101t-95 43q-56 0 -96 -43t-40 -103z" />
    <glyph glyph-name="p" unicode="p" horiz-adv-x="569" 
d="M38 262q0 99 75 171t182 72q108 0 181 -73t73 -182q0 -110 -74 -184t-185 -74q-37 0 -96 18v114l41 -11q14 -3 37 -3q76 0 117 36.5t41 105.5q0 58 -40 98t-98 40q-56 0 -97 -39.5t-41 -97.5v-467h-116v476z" />
    <glyph glyph-name="q" unicode="q" horiz-adv-x="569" 
d="M280 -8q-112 0 -186.5 74t-74.5 184q0 108 73 181.5t182 73.5q105 0 181.5 -71t76.5 -172v-476h-117v467q0 57 -41.5 97t-97.5 40q-57 0 -97.5 -41.5t-40.5 -102.5q0 -62 42 -99t117 -37q29 0 78 14v-114q-57 -18 -95 -18z" />
    <glyph glyph-name="r" unicode="r" horiz-adv-x="253" 
d="M38 312q0 78 56 132.5t135 54.5l29 -1v-110h-14q-41 0 -65.5 -24.5t-24.5 -65.5v-298h-116v312z" />
    <glyph glyph-name="s" unicode="s" horiz-adv-x="349" 
d="M95 125q34 -26 50 -26q14 0 26 12t12 28q0 18 -18 39l-83 99q-37 43 -37 92q0 57 44 95t111 38q39 0 65 -9.5t59 -37.5l-63 -80q-29 21 -50 21q-14 0 -26 -12q-8 -10 -10 -27q0 -14 20 -37l79 -95q36 -45 36 -99q0 -55 -42.5 -94.5t-107.5 -39.5q-39 0 -70 10t-65 35z
" />
    <glyph glyph-name="t" unicode="t" horiz-adv-x="246" 
d="M223 -3q-81 0 -133 51t-52 135v446h116v-138h92v-107h-92v-202q0 -35 22 -57t58 -22l12 1v-106z" />
    <glyph glyph-name="u" unicode="u" horiz-adv-x="538" 
d="M501 213q0 -98 -65 -160t-167 -62q-101 0 -166 62t-65 160v278h116v-275q0 -51 32 -83t83 -32t83.5 31.5t32.5 83.5v275h116v-278z" />
    <glyph glyph-name="v" unicode="v" horiz-adv-x="462" 
d="M114 491l60 -334q5 -27 20.5 -43.5t36.5 -16.5q45 0 57 60l60 334h119l-68 -358q-11 -62 -58.5 -102t-110.5 -40q-62 0 -108.5 39.5t-58.5 102.5l-68 358h119z" />
    <glyph glyph-name="w" unicode="w" horiz-adv-x="742" 
d="M237 -9q-90 0 -144.5 54.5t-54.5 148.5v297h116v-303q0 -38 23 -64t57 -26q33 0 55 26.5t22 64.5v302h118v-302q0 -37 22 -65q23 -26 56 -26t56.5 26.5t23.5 63.5v303h117v-297q0 -92 -54.5 -147.5t-146.5 -55.5q-61 0 -86.5 18.5t-30.5 24.5l-15 20q-23 -34 -53.5 -48.5
t-80.5 -14.5z" />
    <glyph glyph-name="x" unicode="x" horiz-adv-x="441" 
d="M11 103q68 0 109 39q20 20 30 45t10 59q0 61 -39.5 99.5t-109.5 38.5v113q74 0 121 -23t89 -80q41 54 89 78.5t120 24.5v-113q-73 0 -111 -37t-38 -103q0 -63 39.5 -102t109.5 -39v-109l-31 3q-56 6 -91.5 22t-51 29t-35.5 43q-22 -33 -45 -50t-66.5 -32t-98.5 -15v109z
" />
    <glyph glyph-name="y" unicode="y" horiz-adv-x="461" 
d="M114 491l58 -321q9 -62 57 -62q44 0 59 63l59 320h118l-68 -358q-18 -93 -108 -128v-219h-117v219q-89 27 -110 130l-67 356h119z" />
    <glyph glyph-name="z" unicode="z" horiz-adv-x="449" 
d="M88 0q-72 0 -72 59q0 14 9 29l27 36l211 260h-227v107h323q31 0 51 -17.5t20 -45.5q0 -29 -24 -56l-222 -265h227v-107h-323z" />
    <glyph glyph-name="braceleft" unicode="{" horiz-adv-x="366" 
d="M62 365q41 18 41 67v321q0 39 24 62t65 23h109v-65h-13q-34 0 -45.5 -11t-11.5 -43v-272q0 -28 -13.5 -48t-31.5 -28t-35 -11q14 0 32 -9q18 -7 33 -29t15 -49v-272q0 -30 12 -42t45 -12h13v-65h-109q-43 0 -66 21.5t-23 63.5v321q0 31 -18.5 51.5t-46.5 20.5q13 0 24 5z
" />
    <glyph glyph-name="bar" unicode="|" horiz-adv-x="199" 
d="M38 720h108v-720h-108v720z" />
    <glyph glyph-name="braceright" unicode="}" horiz-adv-x="366" 
d="M38 -53h12q34 0 45.5 11t11.5 43v272q0 56 32 71q31 13 48 16q-15 2 -31.5 9t-32.5 29t-16 49v272q0 30 -12 42t-45 12h-12v65h108q43 0 66 -23q24 -21 24 -62v-321q0 -31 18 -51.5t47 -20.5q-12 0 -38.5 -11.5t-26.5 -60.5v-321q0 -38 -23.5 -61.5t-66.5 -23.5h-108v65z
" />
    <glyph glyph-name="asciitilde" unicode="~" horiz-adv-x="342" 
d="M98 884l17 -1l22 -4l34 -12l19 -6l11 -4l35 -8q15 0 22.5 7.5t11.5 28.5h71q0 -59 -26 -92t-70 -33q-25 0 -79 18l-31 12q-18 6 -30 6q-28 0 -35 -35h-70q0 58 26.5 90.5t71.5 32.5z" />
    <glyph glyph-name="c128" horiz-adv-x="477" 
d="M434 476h-379l-28 -84h383zM496 732q-8 -1 -24 -2t-40 -3q-50 -3 -53 -4l-56 -19q-31 -13 -50 -25l-65 -50q-45 -36 -81 -111t-36 -159t36.5 -159t106.5 -132t124 -66q52 -9 67 -9l31 -1v118l-58 14l-44 20l-25 13l-58 44q-48 39 -48 154q0 54 23.5 106t63.5 88
q25 22 43 34q24 16 47 21l56 9zM398 348h-333l-30 -84h339z" />
    <glyph glyph-name="c128" unicode="&#x20ac;" horiz-adv-x="477" 
d="M434 476h-379l-28 -84h383zM496 732q-8 -1 -24 -2t-40 -3q-50 -3 -53 -4l-56 -19q-31 -13 -50 -25l-65 -50q-45 -36 -81 -111t-36 -159t36.5 -159t106.5 -132t124 -66q52 -9 67 -9l31 -1v118l-58 14l-44 20l-25 13l-58 44q-48 39 -48 154q0 54 23.5 106t63.5 88
q25 22 43 34q24 16 47 21l56 9zM398 348h-333l-30 -84h339z" />
    <glyph glyph-name="quotesinglbase" horiz-adv-x="208" 
d="M102 -13q-41 10 -59 28q-16 18 -16 50q0 31 21.5 53.5t53.5 22.5q34 0 57 -29q24 -27 24 -70q0 -76 -81 -135v80z" />
    <glyph glyph-name="quotesinglbase" unicode="&#x201a;" horiz-adv-x="208" 
d="M102 -13q-41 10 -59 28q-16 18 -16 50q0 31 21.5 53.5t53.5 22.5q34 0 57 -29q24 -27 24 -70q0 -76 -81 -135v80z" />
    <glyph glyph-name="florin" horiz-adv-x="432" 
d="M-83 -118l33 -3q47 0 81.5 21.5t40.5 56.5l93 557q16 100 84.5 159.5t168.5 59.5l43 -3l-17 -105l-34 3q-47 0 -81.5 -21.5t-40.5 -56.5l-12 -67h92l-18 -108h-91l-64 -383q-15 -99 -84 -158.5t-169 -59.5l-43 3z" />
    <glyph glyph-name="florin" unicode="&#x192;" horiz-adv-x="432" 
d="M-83 -118l33 -3q47 0 81.5 21.5t40.5 56.5l93 557q16 100 84.5 159.5t168.5 59.5l43 -3l-17 -105l-34 3q-47 0 -81.5 -21.5t-40.5 -56.5l-12 -67h92l-18 -108h-91l-64 -383q-15 -99 -84 -158.5t-169 -59.5l-43 3z" />
    <glyph glyph-name="quotedblbase" horiz-adv-x="385" 
d="M102 -13q-41 10 -59 28q-16 18 -16 50t22 54t53 22q34 0 57 -29q24 -27 24 -70q0 -76 -81 -135v80zM279 -13q-41 10 -59 28q-16 18 -16 50q0 31 21.5 53.5t53.5 22.5q34 0 57 -29q24 -27 24 -70q0 -76 -81 -135v80z" />
    <glyph glyph-name="quotedblbase" unicode="&#x201e;" horiz-adv-x="385" 
d="M102 -13q-41 10 -59 28q-16 18 -16 50t22 54t53 22q34 0 57 -29q24 -27 24 -70q0 -76 -81 -135v80zM279 -13q-41 10 -59 28q-16 18 -16 50q0 31 21.5 53.5t53.5 22.5q34 0 57 -29q24 -27 24 -70q0 -76 -81 -135v80z" />
    <glyph glyph-name="ellipsis" unicode="&#x85;" horiz-adv-x="996" 
d="M121 131q23 24 60 24q32 0 57 -23.5t25 -60.5q0 -32 -23.5 -57t-60.5 -25q-33 0 -59 23q-24 24 -24 60q0 35 25 59zM453 131q12 12 27.5 18t33.5 6q32 0 57 -23.5t25 -60.5q0 -32 -18 -51t-33.5 -25t-33.5 -6q-32 0 -57 24t-25 59q0 33 24 59zM833 156q34 0 59 -25
t25 -59q0 -35 -24.5 -59.5t-59.5 -24.5q-36 0 -60 24t-24 60q0 33 24.5 58.5t59.5 25.5z" />
    <glyph glyph-name="ellipsis" unicode="&#x2026;" horiz-adv-x="996" 
d="M121 131q23 24 60 24q32 0 57 -23.5t25 -60.5q0 -32 -23.5 -57t-60.5 -25q-33 0 -59 23q-24 24 -24 60q0 35 25 59zM453 131q12 12 27.5 18t33.5 6q32 0 57 -23.5t25 -60.5q0 -32 -18 -51t-33.5 -25t-33.5 -6q-32 0 -57 24t-25 59q0 33 24 59zM833 156q34 0 59 -25
t25 -59q0 -35 -24.5 -59.5t-59.5 -24.5q-36 0 -60 24t-24 60q0 33 24.5 58.5t59.5 25.5z" />
    <glyph glyph-name="dagger" horiz-adv-x="606" 
d="M22 495h224v226h113v-226h226v-101h-226v-578h-113v578h-224v101z" />
    <glyph glyph-name="dagger" unicode="&#x2020;" horiz-adv-x="606" 
d="M22 495h224v226h113v-226h226v-101h-226v-578h-113v578h-224v101z" />
    <glyph glyph-name="daggerdbl" horiz-adv-x="606" 
d="M22 496l224 -1v226h113v-226h226v-101h-226v-131h226v-102h-226v-345h-113v345l-224 1v102l226 -1l-2 131l-224 1v101z" />
    <glyph glyph-name="daggerdbl" unicode="&#x2021;" horiz-adv-x="606" 
d="M22 496l224 -1v226h113v-226h226v-101h-226v-131h226v-102h-226v-345h-113v345l-224 1v102l226 -1l-2 131l-224 1v101z" />
    <glyph glyph-name="perthousand" horiz-adv-x="1162" 
d="M490 721h68l-255 -721h-66zM196 730q71 0 118.5 -54.5t47.5 -136.5t-47.5 -138t-118.5 -56q-70 0 -118.5 54.5t-48.5 138.5q0 83 48 137.5t119 54.5zM597 375q70 0 118 -53.5t48 -135.5q0 -81 -48.5 -138t-118.5 -57q-69 0 -117.5 56t-48.5 138t48 136t119 54zM966 375
q72 0 120 -54t48 -135q0 -82 -48 -138.5t-120 -56.5q-69 0 -117.5 56t-48.5 138t47 136t119 54zM510 182q0 -55 23 -85.5t64 -30.5q39 0 62.5 31t23.5 85q0 55 -23 87.5t-63 32.5q-39 0 -63 -33t-24 -87zM109 535q0 -53 23 -85q25 -31 64 -31t62.5 31t23.5 85q0 55 -23 88
t-63 33q-39 0 -63 -33t-24 -88zM880 182q0 -53 23 -85q25 -31 63 -31q41 0 64.5 31t23.5 85t-24 87t-64 33q-36 0 -62 -33q-24 -33 -24 -87z" />
    <glyph glyph-name="perthousand" unicode="&#x2030;" horiz-adv-x="1162" 
d="M490 721h68l-255 -721h-66zM196 730q71 0 118.5 -54.5t47.5 -136.5t-47.5 -138t-118.5 -56q-70 0 -118.5 54.5t-48.5 138.5q0 83 48 137.5t119 54.5zM597 375q70 0 118 -53.5t48 -135.5q0 -81 -48.5 -138t-118.5 -57q-69 0 -117.5 56t-48.5 138t48 136t119 54zM966 375
q72 0 120 -54t48 -135q0 -82 -48 -138.5t-120 -56.5q-69 0 -117.5 56t-48.5 138t47 136t119 54zM510 182q0 -55 23 -85.5t64 -30.5q39 0 62.5 31t23.5 85q0 55 -23 87.5t-63 32.5q-39 0 -63 -33t-24 -87zM109 535q0 -53 23 -85q25 -31 64 -31t62.5 31t23.5 85q0 55 -23 88
t-63 33q-39 0 -63 -33t-24 -88zM880 182q0 -53 23 -85q25 -31 63 -31q41 0 64.5 31t23.5 85t-24 87t-64 33q-36 0 -62 -33q-24 -33 -24 -87z" />
    <glyph glyph-name="guilsinglleft" horiz-adv-x="309" 
d="M27 295l182 210l73 -68l-163 -191l163 -190l-73 -69l-182 211v97z" />
    <glyph glyph-name="guilsinglleft" unicode="&#x2039;" horiz-adv-x="309" 
d="M27 295l182 210l73 -68l-163 -191l163 -190l-73 -69l-182 211v97z" />
    <glyph glyph-name="OE" horiz-adv-x="1036" 
d="M739 596q16 25 41 48.5t44 35.5l39 21l41 18q13 5 25.5 8.5t27.5 6.5t29 3.5t23 0.5v-122l-43 -7q-28 -6 -53.5 -19.5t-50 -35t-40.5 -46.5l-23 -42l-15 -47h225v-115h-225q6 -29 13 -43q18 -50 49 -77l45 -36l32 -18l38 -13l48 -10v-120l-54 5q-38 5 -75 20t-69 36.5
t-52 47.5t-30 43l-20 49q-13 -34 -23 -50t-39.5 -51.5t-99.5 -68t-147 -32.5q-159 0 -270 111t-111 272q0 158 108.5 265.5t267.5 107.5q137 0 196 -52.5t77 -80.5q18 -25 40 -77zM149 364q0 -102 72.5 -177.5t174.5 -75.5q100 0 173.5 75.5t73.5 179.5q0 105 -71 179
t-172 74q-99 0 -175 -76t-76 -179z" />
    <glyph glyph-name="OE" unicode="&#x152;" horiz-adv-x="1036" 
d="M739 596q16 25 41 48.5t44 35.5l39 21l41 18q13 5 25.5 8.5t27.5 6.5t29 3.5t23 0.5v-122l-43 -7q-28 -6 -53.5 -19.5t-50 -35t-40.5 -46.5l-23 -42l-15 -47h225v-115h-225q6 -29 13 -43q18 -50 49 -77l45 -36l32 -18l38 -13l48 -10v-120l-54 5q-38 5 -75 20t-69 36.5
t-52 47.5t-30 43l-20 49q-13 -34 -23 -50t-39.5 -51.5t-99.5 -68t-147 -32.5q-159 0 -270 111t-111 272q0 158 108.5 265.5t267.5 107.5q137 0 196 -52.5t77 -80.5q18 -25 40 -77zM149 364q0 -102 72.5 -177.5t174.5 -75.5q100 0 173.5 75.5t73.5 179.5q0 105 -71 179
t-172 74q-99 0 -175 -76t-76 -179z" />
    <glyph glyph-name="quoteleft" horiz-adv-x="208" 
d="M107 654q41 -11 58 -29.5t17 -49.5q0 -32 -22 -54t-53 -22q-33 0 -58 28q-23 29 -23 71q0 77 81 136v-80z" />
    <glyph glyph-name="quoteleft" unicode="&#x2018;" horiz-adv-x="208" 
d="M107 654q41 -11 58 -29.5t17 -49.5q0 -32 -22 -54t-53 -22q-33 0 -58 28q-23 29 -23 71q0 77 81 136v-80z" />
    <glyph glyph-name="quoteright" horiz-adv-x="208" 
d="M102 581q-41 10 -59 27q-16 18 -16 50q0 31 21.5 53.5t53.5 22.5q34 0 57 -29q24 -27 24 -69q0 -77 -81 -137v82z" />
    <glyph glyph-name="quoteright" unicode="&#x2019;" horiz-adv-x="208" 
d="M102 581q-41 10 -59 27q-16 18 -16 50q0 31 21.5 53.5t53.5 22.5q34 0 57 -29q24 -27 24 -69q0 -77 -81 -137v82z" />
    <glyph glyph-name="quotedblleft" horiz-adv-x="385" 
d="M284 649q42 -11 58.5 -28.5t16.5 -50.5q0 -32 -22 -54t-53 -22q-34 0 -57.5 28t-23.5 70q0 78 81 137v-80zM107 649q41 -11 58 -29.5t17 -49.5q0 -32 -22 -54t-53 -22q-34 0 -57.5 28t-23.5 70q0 78 81 137v-80z" />
    <glyph glyph-name="quotedblleft" unicode="&#x201c;" horiz-adv-x="385" 
d="M284 649q42 -11 58.5 -28.5t16.5 -50.5q0 -32 -22 -54t-53 -22q-34 0 -57.5 28t-23.5 70q0 78 81 137v-80zM107 649q41 -11 58 -29.5t17 -49.5q0 -32 -22 -54t-53 -22q-34 0 -57.5 28t-23.5 70q0 78 81 137v-80z" />
    <glyph glyph-name="quotedblright" horiz-adv-x="385" 
d="M102 575q-41 10 -59 28q-16 18 -16 50q0 31 21.5 53.5t53.5 22.5q34 0 57.5 -29t23.5 -70q0 -74 -81 -136v81zM279 575q-41 10 -59 28q-16 18 -16 50q0 31 21.5 53.5t53.5 22.5q34 0 57.5 -29t23.5 -70q0 -77 -81 -136v81z" />
    <glyph glyph-name="quotedblright" unicode="&#x201d;" horiz-adv-x="385" 
d="M102 575q-41 10 -59 28q-16 18 -16 50q0 31 21.5 53.5t53.5 22.5q34 0 57.5 -29t23.5 -70q0 -74 -81 -136v81zM279 575q-41 10 -59 28q-16 18 -16 50q0 31 21.5 53.5t53.5 22.5q34 0 57.5 -29t23.5 -70q0 -77 -81 -136v81z" />
    <glyph glyph-name="bullet" horiz-adv-x="237" 
d="M118 358q33 0 55 -22t22 -55q0 -32 -21.5 -55t-55.5 -23q-31 0 -54 23t-23 55t22.5 54.5t54.5 22.5z" />
    <glyph glyph-name="bullet" unicode="&#x2022;" horiz-adv-x="237" 
d="M118 358q33 0 55 -22t22 -55q0 -32 -21.5 -55t-55.5 -23q-31 0 -54 23t-23 55t22.5 54.5t54.5 22.5z" />
    <glyph glyph-name="endash" 
d="M50 389h492v-105h-492v105z" />
    <glyph glyph-name="endash" unicode="&#x2013;" 
d="M50 389h492v-105h-492v105z" />
    <glyph glyph-name="emdash" horiz-adv-x="996" 
d="M30 416h936v-119h-936v119z" />
    <glyph glyph-name="emdash" unicode="&#x2014;" horiz-adv-x="996" 
d="M30 416h936v-119h-936v119z" />
    <glyph glyph-name="trademark" horiz-adv-x="773" 
d="M38 720h219v-59l-77 1v-302h-66v302h-76v58zM309 725h51l83 -203l12 -34q6 -18 6 -41l2 21q2 13 5 25t11 29l83 203h51l64 -365h-64l-33 201l-1 11l-1 12v41l-11 -41l-5 -16l-2 -6l-83 -206h-31l-84 206l-2 7l-5 15l-11 41l1 -17v-15v-9l-1 -13l-2 -10l-33 -201h-64z" />
    <glyph glyph-name="trademark" unicode="&#x2122;" horiz-adv-x="773" 
d="M38 720h219v-59l-77 1v-302h-66v302h-76v58zM309 725h51l83 -203l12 -34q6 -18 6 -41l2 21q2 13 5 25t11 29l83 203h51l64 -365h-64l-33 201l-1 11l-1 12v41l-11 -41l-5 -16l-2 -6l-83 -206h-31l-84 206l-2 7l-5 15l-11 41l1 -17v-15v-9l-1 -13l-2 -10l-33 -201h-64z" />
    <glyph glyph-name="guilsinglright" horiz-adv-x="309" 
d="M190 246l-163 191l74 68l181 -210v-97l-181 -211l-74 69z" />
    <glyph glyph-name="guilsinglright" unicode="&#x203a;" horiz-adv-x="309" 
d="M190 246l-163 191l74 68l181 -210v-97l-181 -211l-74 69z" />
    <glyph glyph-name="oe" horiz-adv-x="907" 
d="M518 457q53 45 137 45q46 0 80 -11q16 -5 34 -13t33 -19q31 -21 49 -43.5t41 -70.5l-263 -200l-54 67l183 139q-38 44 -92 44q-60 0 -106 -46t-46 -105q0 -55 43.5 -100t97.5 -45q74 0 131 75l94 -54l-32 -47q-9 -11 -55.5 -46t-138.5 -35q-83 0 -121 30
q-13 11 -27.5 25.5t-17.5 18.5l-18 33q-16 -26 -57 -67t-139 -41q-106 0 -180.5 75.5t-74.5 182.5q0 108 75 182t183 74q92 0 129 -33.5t46 -46.5l19 -33q8 17 12.5 24.5t10.5 14.5q7 11 24 26zM138 246q0 -57 40.5 -100t95.5 -43q53 0 94 43t41 102q0 58 -40 101t-95 43
q-56 0 -96 -43t-40 -103z" />
    <glyph glyph-name="oe" unicode="&#x153;" horiz-adv-x="907" 
d="M518 457q53 45 137 45q46 0 80 -11q16 -5 34 -13t33 -19q31 -21 49 -43.5t41 -70.5l-263 -200l-54 67l183 139q-38 44 -92 44q-60 0 -106 -46t-46 -105q0 -55 43.5 -100t97.5 -45q74 0 131 75l94 -54l-32 -47q-9 -11 -55.5 -46t-138.5 -35q-83 0 -121 30
q-13 11 -27.5 25.5t-17.5 18.5l-18 33q-16 -26 -57 -67t-139 -41q-106 0 -180.5 75.5t-74.5 182.5q0 108 75 182t183 74q92 0 129 -33.5t46 -46.5l19 -33q8 17 12.5 24.5t10.5 14.5q7 11 24 26zM138 246q0 -57 40.5 -100t95.5 -43q53 0 94 43t41 102q0 58 -40 101t-95 43
q-56 0 -96 -43t-40 -103z" />
    <glyph glyph-name="Ydieresis" horiz-adv-x="521" 
d="M125 721l35 -259q5 -42 31.5 -66t67.5 -24q86 0 101 96l35 253h130l-80 -578q-9 -66 -61 -110.5t-121 -44.5q-40 0 -76 14.5t-66 43.5q-29 30 -43 61q-13 33 -13 88h126l5 -23q3 -26 21 -45t42 -19q23 0 43 21q17 20 23 57l11 94q-62 -21 -113 -21q-75 0 -127.5 46.5
t-61.5 121.5l-39 294h130zM176 931q27 0 46.5 -19t19.5 -47q0 -27 -19 -46t-47 -19q-27 0 -46 19t-19 46q0 26 18 46t47 20zM346 931q26 0 45 -19t19 -47q0 -27 -19 -46t-45 -19t-47 18q-19 19 -19 47q0 27 19 46.5t47 19.5z" />
    <glyph glyph-name="Ydieresis" unicode="&#x178;" horiz-adv-x="521" 
d="M125 721l35 -259q5 -42 31.5 -66t67.5 -24q86 0 101 96l35 253h130l-80 -578q-9 -66 -61 -110.5t-121 -44.5q-40 0 -76 14.5t-66 43.5q-29 30 -43 61q-13 33 -13 88h126l5 -23q3 -26 21 -45t42 -19q23 0 43 21q17 20 23 57l11 94q-62 -21 -113 -21q-75 0 -127.5 46.5
t-61.5 121.5l-39 294h130zM176 931q27 0 46.5 -19t19.5 -47q0 -27 -19 -46t-47 -19q-27 0 -46 19t-19 46q0 26 18 46t47 20zM346 931q26 0 45 -19t19 -47q0 -27 -19 -46t-45 -19t-47 18q-19 19 -19 47q0 27 19 46.5t47 19.5z" />
    <glyph glyph-name="nonbreakingspace" unicode="&#xa0;" horiz-adv-x="500" 
 />
    <glyph glyph-name="exclamdown" unicode="&#xa1;" horiz-adv-x="237" 
d="M118 735q32 0 54.5 -21.5t22.5 -55.5q0 -32 -22 -54t-55 -22q-31 0 -54 21.5t-23 54.5t22 55t55 22zM58 510h117v-510h-117v510z" />
    <glyph glyph-name="cent" unicode="&#xa2;" horiz-adv-x="329" 
d="M172 563h81v-62l24 1l30 -4v-113l-23 1q-56 0 -97 -41t-41 -97q0 -57 41.5 -100t97.5 -43l22 1v-112l-27 -3l-27 3v-65h-82v86q-68 28 -108.5 90t-40.5 136q0 75 39 138t111 99v85z" />
    <glyph glyph-name="sterling" unicode="&#xa3;" horiz-adv-x="595" 
d="M131 241v19q-3 12 -5 24.5t-12 36.5h-88v62h63q-48 77 -48 138q0 92 76 153t191 61q120 0 188 -64t68 -181l-132 -4q0 63 -32.5 99t-91.5 36q-48 0 -82 -30t-34 -74q0 -26 8 -45l17 -35l14 -29l11 -24h144v-62h-128l6 -25l2 -23q0 -94 -101 -165q65 28 99 28q20 0 33 -4
l56 -16q46 -13 65 -13q46 0 102 46l58 -109q-87 -58 -162 -58h-25q-17 3 -29 4.5t-22 5t-32 11.5l-52 18q-37 10 -56 10q-28 0 -61 -13q-14 -4 -27 -11t-31 -21l-59 97q55 39 82 77t27 80z" />
    <glyph glyph-name="currency" unicode="&#xa4;" horiz-adv-x="494" 
d="M96 268q-29 43 -29 95q0 51 29 93l-57 55q15 21 37 40l59 -59q42 31 96 31q48 0 92 -30l58 59q22 -15 38 -42l-56 -54q8 -11 12.5 -19.5t11 -29.5t6.5 -44q0 -53 -32 -97l58 -57l-8 -10l-9 -9l-22 -20l-57 58q-42 -31 -94 -31q-53 0 -93 31l-61 -58l-9 10l-9 9l-10 11
l-9 11zM230 252q44 0 75.5 31.5t31.5 77.5q0 44 -32 75q-30 32 -75 32q-44 0 -76 -32t-32 -76q0 -45 31 -77q33 -31 77 -31z" />
    <glyph glyph-name="yen" unicode="&#xa5;" horiz-adv-x="572" 
d="M70 382l-11 41h-54v58h47l-34 240h131l35 -259q5 -43 32 -66.5t68 -23.5q85 0 100 96l34 253h131l-33 -240h50v-57h-58l-5 -41h63v-52h-70l-27 -197q-9 -61 -60.5 -103.5t-120.5 -42.5q-37 0 -74.5 15t-66.5 42.5t-43.5 61.5t-14.5 88h126l6 -24q3 -25 21 -43
q19 -16 41 -16q57 0 66 74l11 94q-5 -2 -28 -9.5t-29 -9.5q-26 -6 -54 -6q-103 0 -154 75h-90v52h65z" />
    <glyph glyph-name="section" unicode="&#xa7;" horiz-adv-x="609" 
d="M88 557q0 74 63.5 124t163.5 50q115 0 158.5 -41t57.5 -70.5t23 -76.5h-125q0 43 -30.5 68.5t-81.5 25.5q-43 0 -68.5 -19t-25.5 -49q0 -24 12 -39.5t48 -33.5l181 -79q52 -22 82.5 -64.5t30.5 -95.5q0 -46 -21.5 -80.5t-70.5 -69.5q24 -21 34 -43.5t10 -52.5
q0 -78 -64 -130t-163 -52q-96 0 -160 46q-42 27 -57 57t-20 50l-7 49l125 -4q0 -49 32 -77t87 -28q42 0 68 20q26 18 26 53q0 46 -54 72l-187 84q-56 27 -90.5 57.5t-34.5 93.5q0 95 105 157q-47 42 -47 98zM211 398q-50 -35 -50 -75q0 -46 51 -69l191 -84q49 29 49 72
q0 49 -47 70z" />
    <glyph glyph-name="dieresis" unicode="&#xa8;" horiz-adv-x="299" 
d="M65 666q27 0 46.5 -19t19.5 -47q0 -27 -19 -46t-47 -19q-27 0 -46 19t-19 46q0 26 18 46t47 20zM235 666q26 0 45 -19t19 -47q0 -27 -19 -46t-45 -19t-47 18q-19 19 -19 47q0 27 19 46.5t47 19.5z" />
    <glyph glyph-name="copyright" unicode="&#xa9;" horiz-adv-x="932" 
d="M167 624q55 55 122 81q36 14 70 21t73 7q73 0 140.5 -27.5t149.5 -109.5t82 -235q0 -156 -109 -265t-264 -109t-264 109t-109 265q0 74 27.5 141.5t81.5 121.5zM210 134q44 -45 103 -68.5t119 -23.5q62 0 118.5 23.5t101.5 68.5t69 103.5t24 123.5q0 130 -68 200t-126 94
t-120 24t-118.5 -22.5t-102.5 -69.5t-69.5 -104.5t-23.5 -121.5q0 -63 23.5 -120.5t69.5 -106.5zM561 485q-33 27 -63 33t-47 6q-59 0 -105 -38.5t-52 -77.5l-6 -53q0 -60 37.5 -106t77.5 -53l48 -6q46 0 89 25l20 16l37 -54q-31 -25 -68 -40q-39 -13 -78 -13
q-100 0 -168.5 66t-68.5 162v26q3 14 4.5 23t6 25.5t13.5 39.5q16 45 76 85t132 40q15 0 24 -1t44 -6.5t84 -45.5z" />
    <glyph glyph-name="ordfeminine" unicode="&#xaa;" horiz-adv-x="483" 
d="M409 330v-77h-361v77h361zM324 720h84l1 -342h-86v65l-3 -7q-15 -31 -47 -48q-30 -18 -72 -18q-19 0 -26 1q-18 5 -27 6q-35 7 -72.5 55t-37.5 113v26l9 40q6 29 33 60t58 46q33 14 65 14q74 0 112 -56l5 -8l4 -8v61zM127 529q12 -68 49 -77l52 -7l44 7q38 8 45 46l8 53
l-4 30q-3 23 -23.5 44.5t-41.5 27.5l-31 5q-35 0 -62 -23t-36 -64l-2 -21z" />
    <glyph glyph-name="guillemotleft" unicode="&#xab;" horiz-adv-x="504" 
d="M221 295l182 210l74 -68l-163 -191l163 -190l-74 -69l-182 211v97zM27 295l182 210l73 -68l-163 -191l163 -190l-73 -69l-182 211v97z" />
    <glyph glyph-name="logicalnot" unicode="&#xac;" horiz-adv-x="653" 
d="M38 468h528v-252h-84v144h-444v108z" />
    <glyph glyph-name="registered" unicode="&#xae;" horiz-adv-x="932" 
d="M167 624q55 55 122 81q36 14 70 21t73 7q73 0 140.5 -27.5t149.5 -109.5t82 -235q0 -156 -109 -265t-264 -109t-264 109t-109 265q0 74 27.5 141.5t81.5 121.5zM210 134q44 -45 103 -68.5t119 -23.5q62 0 118.5 23.5t101.5 68.5t69 103.5t24 123.5q0 130 -68 200t-126 94
t-120 24t-118.5 -22.5t-102.5 -69.5t-69.5 -104.5t-23.5 -121.5q0 -63 23.5 -120.5t69.5 -106.5zM306 589h121q70 0 102.5 -25.5t40.5 -57.5q6 -30 6 -46q0 -46 -25.5 -77.5t-70.5 -40.5l-13 -1l134 -201h-85l-138 214v-214h-72v449zM415 381q87 0 87 73q0 76 -83 76h-41
v-149h37z" />
    <glyph glyph-name="plusminus" unicode="&#xb1;" horiz-adv-x="594" 
d="M506 19h-462v68h462v-68zM309 331h197v-68h-197v-122h-68v122h-197v68h197v122h68v-122z" />
    <glyph glyph-name="acute" unicode="&#xb4;" horiz-adv-x="216" 
d="M59 681h156l-118 -144h-97z" />
    <glyph glyph-name="mu" unicode="&#xb5;" horiz-adv-x="623" 
d="M166 153q0 -71 14 -95t50 -24q56 0 94.5 81.5t38.5 203.5v130h92v-328q0 -45 9 -66t29 -21t31.5 20.5t11.5 61.5v14h21l1 -9v-13q0 -53 -23.5 -85t-66.5 -32q-48 0 -75 43t-27 129q-23 -89 -61.5 -130.5t-96.5 -41.5q-43 0 -73 26q-27 27 -40 77l-1 -28q0 -66 31 -140.5
t33 -92.5q0 -20 -11 -31t-31 -11q-23 0 -33 17.5t-10 52.5l2 58l2 89l-1 101l-2 95v245h92v-296z" />
    <glyph glyph-name="paragraph" unicode="&#xb6;" horiz-adv-x="655" 
d="M568 720v-65h-326q-57 0 -98.5 -42.5t-41.5 -100.5t41 -99t99 -41h65v233h69v-605h-69v307h-65q-84 0 -144 60t-60 146t59 146q29 29 66 45t80 16h325zM439 605h69v-605h-69v605z" />
    <glyph glyph-name="cedilla" unicode="&#xb8;" horiz-adv-x="110" 
d="M0 -49h110v-83q0 -94 -105 -94l-2 44q24 0 36.5 10.5t12.5 33.5h-52v89z" />
    <glyph glyph-name="ordmasculine" unicode="&#xba;" horiz-adv-x="483" 
d="M44 330h360v-77h-360v77zM42 589q12 65 63 105t117 40q16 0 25 -1t36 -7q43 -7 84.5 -57.5t41.5 -117.5l-1 -16q0 -9 -3 -23.5t-5 -24.5q-7 -39 -59 -80q-25 -20 -54 -30t-64 -10q-79 0 -132 53t-53 131v15zM125 531q11 -69 50 -78t49 -9q36 0 62.5 23.5t32.5 51.5l5 34
q0 40 -22 66q-20 26 -44.5 32t-34.5 6q-14 0 -20 -2q-5 0 -36 -14t-42 -70l-2 -11v-9q0 -14 2 -20z" />
    <glyph glyph-name="guillemotright" unicode="&#xbb;" horiz-adv-x="504" 
d="M190 246l-163 191l74 68l181 -210v-97l-181 -211l-74 69zM385 246l-164 191l73 68l183 -210v-97l-183 -211l-73 69z" />
    <glyph glyph-name="questiondown" unicode="&#xbf;" horiz-adv-x="481" 
d="M241 732q32 0 54 -23q23 -21 23 -54q0 -32 -22.5 -54.5t-54.5 -22.5q-33 0 -56 22q-11 11 -16.5 24.5t-5.5 30.5q0 31 23 54t55 23zM183 507h115v-189l-36 2q-47 0 -84 -34t-37 -77q0 -40 29 -70q31 -29 71 -29q42 0 72 30t30 74l-2 23l113 17l5 -45q0 -91 -65 -156.5
t-156 -65.5t-153.5 65t-62.5 159q0 87 38 127t58 51t65 24v94z" />
    <glyph glyph-name="Agrave" unicode="&#xc0;" horiz-adv-x="579" 
d="M38 489q0 112 68 177.5t184 65.5q114 0 183 -66t69 -177v-489h-130v264h-244v-264h-130v489zM168 371h244v125q0 56 -33.5 90.5t-88.5 34.5q-57 0 -89.5 -34t-32.5 -91v-125zM338 946l60 -144h-98l-120 144h158z" />
    <glyph glyph-name="Aacute" unicode="&#xc1;" horiz-adv-x="579" 
d="M38 489q0 112 68 177.5t184 65.5q114 0 183 -66t69 -177v-489h-130v264h-244v-264h-130v489zM168 371h244v125q0 56 -33.5 90.5t-88.5 34.5q-57 0 -89.5 -34t-32.5 -91v-125zM240 946h156l-118 -144h-97z" />
    <glyph glyph-name="Acircumflex" unicode="&#xc2;" horiz-adv-x="579" 
d="M38 489q0 112 68 177.5t184 65.5q114 0 183 -66t69 -177v-489h-130v264h-244v-264h-130v489zM168 371h244v125q0 56 -33.5 90.5t-88.5 34.5q-57 0 -89.5 -34t-32.5 -91v-125zM216 946h145l105 -144h-118l-59 99l-58 -99h-119z" />
    <glyph glyph-name="Atilde" unicode="&#xc3;" horiz-adv-x="579" 
d="M38 489q0 112 68 177.5t184 65.5q114 0 183 -66t69 -177v-489h-130v264h-244v-264h-130v489zM168 371h244v125q0 56 -33.5 90.5t-88.5 34.5q-57 0 -89.5 -34t-32.5 -91v-125zM219 922l29 -3l52 -18q18 -6 30.5 -9.5t21.5 -4.5q25 0 34 36h68q0 -56 -26 -89t-67 -33
q-20 0 -76 19l-30 10q-18 6 -29 6q-30 0 -34 -34h-68q0 56 26 88t69 32z" />
    <glyph glyph-name="Adieresis" unicode="&#xc4;" horiz-adv-x="579" 
d="M205 893q29 0 49 -18.5t20 -48.5q0 -29 -20.5 -48t-48.5 -19t-48 19q-19 21 -19 48t20 47t47 20zM381 893q27 0 47 -20q20 -18 20 -47q0 -28 -19.5 -47.5t-47.5 -19.5q-29 0 -49 18.5t-20 48.5q0 27 21 47t48 20zM38 489q0 112 68 177.5t184 65.5q114 0 183 -66t69 -177
v-489h-130v264h-244v-264h-130v489zM168 371h244v125q0 56 -33.5 90.5t-88.5 34.5q-57 0 -89.5 -34t-32.5 -91v-125z" />
    <glyph glyph-name="Aring" unicode="&#xc5;" horiz-adv-x="579" 
d="M288 939q37 0 64 -26.5t27 -64.5q0 -39 -26.5 -65.5t-64.5 -26.5q-39 0 -66 26.5t-27 65.5q0 37 27 64t66 27zM38 489q0 112 68 177.5t184 65.5q114 0 183 -66t69 -177v-489h-130v264h-244v-264h-130v489zM286 802q20 0 33.5 13.5t13.5 32.5q0 20 -13 33t-34 13
q-18 0 -31.5 -13.5t-13.5 -32.5q0 -18 12.5 -32t32.5 -14zM168 371h244v125q0 56 -33.5 90.5t-88.5 34.5q-57 0 -89.5 -34t-32.5 -91v-125z" />
    <glyph glyph-name="AE" unicode="&#xc6;" horiz-adv-x="795" 
d="M38 489q0 111 69 177t185 66q105 0 142 -36.5t46 -54.5q5 -10 9 -21.5t9 -28.5l25 32l33 34l37 27l28 18l35 15l49 15q24 6 63 6v-122l-43 -7q-56 -14 -84 -38q-22 -18 -25 -20q-8 -7 -18 -18l-24 -31l-20 -35l-17 -49l231 1v-115h-225l5 -22l15 -40q13 -33 49 -63.5
t62 -44.5q10 -5 21 -9t24 -8l49 -10v-120q-44 0 -65.5 3.5t-56 16t-60.5 31t-67 58.5v-96h-113v264h-238v-264h-130v489zM168 371h238v125q0 55 -33 90.5t-88 35.5q-52 0 -84.5 -34t-32.5 -92v-125z" />
    <glyph glyph-name="Ccedilla" unicode="&#xc7;" horiz-adv-x="406" 
d="M384 605l-54 -7q-37 -8 -71.5 -32t-71 -75.5t-36.5 -135.5q0 -115 48 -154l58 -44l25 -13l44 -20l58 -14v-119l-31 1q-14 0 -67 9.5t-123.5 66.5t-107 132.5t-36.5 158.5q0 84 36 159t81 111l65 50q19 12 50 25l56 19q6 1 30.5 5t46.5 6v-129zM270 -29h115v-87
q0 -97 -109 -97l-2 47q50 0 50 44h-54v93z" />
    <glyph glyph-name="Egrave" unicode="&#xc8;" horiz-adv-x="416" 
d="M389 616l-42 -7q-56 -13 -103 -54l-24 -26q-12 -12 -24 -30l-17 -32l-15 -48h225v-115h-225l13 -43q18 -51 50 -77l43 -35l32 -18q8 -4 13 -6t26 -8l48 -10v-120h-16q-10 0 -22 2q-12 0 -35 6q-75 11 -145 65t-111 135.5t-41 164.5q0 87 40.5 166.5t93.5 120.5t90.5 58.5
t69.5 25.5q16 3 34 5t42 2v-122zM257 946l60 -144h-98l-120 144h158z" />
    <glyph glyph-name="Eacute" unicode="&#xc9;" horiz-adv-x="416" 
d="M389 616l-42 -7q-56 -13 -103 -54l-24 -26q-12 -12 -24 -30l-17 -32l-15 -48h225v-115h-225l13 -43q18 -51 50 -77l43 -35l32 -18q8 -4 13 -6t26 -8l48 -10v-120h-16q-10 0 -22 2q-12 0 -35 6q-75 11 -145 65t-111 135.5t-41 164.5q0 87 40.5 166.5t93.5 120.5t90.5 58.5
t69.5 25.5q16 3 34 5t42 2v-122zM159 946h156l-118 -144h-97z" />
    <glyph glyph-name="Ecircumflex" unicode="&#xca;" horiz-adv-x="416" 
d="M389 616l-42 -7q-56 -13 -103 -54l-24 -26q-12 -12 -24 -30l-17 -32l-15 -48h225v-115h-225l13 -43q18 -51 50 -77l43 -35l32 -18q8 -4 13 -6t26 -8l48 -10v-120h-16q-10 0 -22 2q-12 0 -35 6q-75 11 -145 65t-111 135.5t-41 164.5q0 87 40.5 166.5t93.5 120.5t90.5 58.5
t69.5 25.5q16 3 34 5t42 2v-122zM134 946h145l105 -144h-118l-59 99l-58 -99h-119z" />
    <glyph glyph-name="Edieresis" unicode="&#xcb;" horiz-adv-x="416" 
d="M389 616l-42 -7q-56 -13 -103 -54l-24 -26q-12 -12 -24 -30l-17 -32l-15 -48h225v-115h-225l13 -43q18 -51 50 -77l43 -35l32 -18q8 -4 13 -6t26 -8l48 -10v-120h-16q-10 0 -22 2q-12 0 -35 6q-75 11 -145 65t-111 135.5t-41 164.5q0 87 40.5 166.5t93.5 120.5t90.5 58.5
t69.5 25.5q16 3 34 5t42 2v-122zM123 931q27 0 46.5 -19t19.5 -47q0 -27 -19 -46t-47 -19q-27 0 -46 19t-19 46q0 26 18 46t47 20zM293 931q26 0 45 -19t19 -47q0 -27 -19 -46t-45 -19t-47 18q-19 19 -19 47q0 27 19 46.5t47 19.5z" />
    <glyph glyph-name="Igrave" unicode="&#xcc;" horiz-adv-x="204" 
d="M38 721h130v-721h-130v721zM152 946l60 -144h-98l-120 144h158z" />
    <glyph glyph-name="Iacute" unicode="&#xcd;" horiz-adv-x="204" 
d="M38 721h130v-721h-130v721zM54 946h156l-118 -144h-97z" />
    <glyph glyph-name="Icircumflex" unicode="&#xce;" horiz-adv-x="204" 
d="M38 721h130v-721h-130v721zM30 946h145l105 -144h-118l-59 99l-58 -99h-119z" />
    <glyph glyph-name="Idieresis" unicode="&#xcf;" horiz-adv-x="204" 
d="M38 721h130v-721h-130v721zM19 931q27 0 46.5 -19t19.5 -47q0 -27 -19 -46t-47 -19q-27 0 -46 19t-19 46q0 26 18 46t47 20zM189 931q26 0 45 -19t19 -47q0 -27 -19 -46t-45 -19t-47 18q-19 19 -19 47q0 27 19 46.5t47 19.5z" />
    <glyph glyph-name="Ntilde" unicode="&#xd1;" horiz-adv-x="576" 
d="M38 491q0 106 72 175t178 69q107 0 178.5 -69t71.5 -175v-491h-129v496q0 47 -35.5 84.5t-84.5 37.5q-47 0 -84 -36t-37 -86v-496h-130v491zM218 922l29 -3l52 -18q18 -6 30.5 -9.5t21.5 -4.5q25 0 34 36h68q0 -56 -26 -89t-67 -33q-20 0 -76 19l-30 10q-18 6 -29 6
q-30 0 -34 -34h-68q0 56 26 88t69 32z" />
    <glyph glyph-name="Ograve" unicode="&#xd2;" horiz-adv-x="794" 
d="M396 742q159 0 268 -108t109 -268t-108.5 -270t-266.5 -110t-268.5 111.5t-110.5 271.5q0 158 108.5 265.5t268.5 107.5zM149 364q0 -104 72 -180t176 -76q102 0 174 75t72 183q0 107 -71 182t-172 75q-103 0 -177 -76.5t-74 -182.5zM446 946l60 -144h-98l-120 144h158z
" />
    <glyph glyph-name="Oacute" unicode="&#xd3;" horiz-adv-x="794" 
d="M396 742q159 0 268 -108t109 -268t-108.5 -270t-266.5 -110t-268.5 111.5t-110.5 271.5q0 158 108.5 265.5t268.5 107.5zM149 364q0 -104 72 -180t176 -76q102 0 174 75t72 183q0 107 -71 182t-172 75q-103 0 -177 -76.5t-74 -182.5zM348 946h156l-118 -144h-97z" />
    <glyph glyph-name="Ocircumflex" unicode="&#xd4;" horiz-adv-x="794" 
d="M396 742q159 0 268 -108t109 -268t-108.5 -270t-266.5 -110t-268.5 111.5t-110.5 271.5q0 158 108.5 265.5t268.5 107.5zM149 364q0 -104 72 -180t176 -76q102 0 174 75t72 183q0 107 -71 182t-172 75q-103 0 -177 -76.5t-74 -182.5zM323 946h145l105 -144h-118l-59 99
l-58 -99h-119z" />
    <glyph glyph-name="Otilde" unicode="&#xd5;" horiz-adv-x="794" 
d="M396 742q159 0 268 -108t109 -268t-108.5 -270t-266.5 -110t-268.5 111.5t-110.5 271.5q0 158 108.5 265.5t268.5 107.5zM149 364q0 -104 72 -180t176 -76q102 0 174 75t72 183q0 107 -71 182t-172 75q-103 0 -177 -76.5t-74 -182.5zM327 922l29 -3l52 -18
q18 -6 30.5 -9.5t21.5 -4.5q25 0 34 36h68q0 -56 -26 -89t-67 -33q-20 0 -76 19l-30 10q-18 6 -29 6q-30 0 -34 -34h-68q0 56 26 88t69 32z" />
    <glyph glyph-name="Odieresis" unicode="&#xd6;" horiz-adv-x="794" 
d="M396 742q159 0 268 -108t109 -268t-108.5 -270t-266.5 -110t-268.5 111.5t-110.5 271.5q0 158 108.5 265.5t268.5 107.5zM314 893q28 0 48 -18.5t20 -48.5q0 -29 -20.5 -48t-47.5 -19q-28 0 -48 18.5t-20 48.5q0 27 20 47t48 20zM489 893q27 0 47 -20q20 -18 20 -47
q0 -28 -19.5 -47.5t-47.5 -19.5q-29 0 -48 19t-19 48q0 27 19.5 47t47.5 20zM396 111q100 0 173.5 75.5t73.5 179.5q0 105 -71 179t-172 74q-99 0 -175 -76t-76 -179q0 -102 72.5 -177.5t174.5 -75.5z" />
    <glyph glyph-name="Oslash" unicode="&#xd8;" horiz-adv-x="805" 
d="M105 128l-22 31l-34 67q-27 54 -27 148q0 156 107.5 262t264.5 106q46 0 95.5 -12.5t79.5 -29.5l23 -11.5t23 -14.5l38 -28l76 73l56 -47l-81 -76q26 -41 48.5 -94t22.5 -133q0 -163 -108.5 -273t-269.5 -110q-92 0 -145.5 27.5t-60.5 34.5l-35 30l-89 -84l-48 54z
M559 558l-25 20q-7 6 -40 22.5t-85 16.5q-102 0 -179 -76q-38 -38 -57 -81t-19 -95q0 -40 10 -69q9 -31 19 -49l16 -30zM249 165l35 -22l45 -20q30 -12 71 -12q100 0 172.5 75.5t72.5 184.5l-3 42q-1 9 -3.5 19t-7.5 22q-6 21 -25 50z" />
    <glyph glyph-name="Ugrave" unicode="&#xd9;" horiz-adv-x="575" 
d="M168 721v-506q0 -48 34 -82q35 -32 87 -32q51 0 85.5 33.5t34.5 86.5v500h129v-492q0 -106 -71 -174.5t-179 -68.5t-179 68t-71 170v497h130zM336 946l60 -144h-98l-120 144h158z" />
    <glyph glyph-name="Uacute" unicode="&#xda;" horiz-adv-x="575" 
d="M168 721v-506q0 -48 34 -82q35 -32 87 -32q51 0 85.5 33.5t34.5 86.5v500h129v-492q0 -106 -71 -174.5t-179 -68.5t-179 68t-71 170v497h130zM238 946h156l-118 -144h-97z" />
    <glyph glyph-name="Ucircumflex" unicode="&#xdb;" horiz-adv-x="575" 
d="M168 721v-506q0 -48 34 -82q35 -32 87 -32q51 0 85.5 33.5t34.5 86.5v500h129v-492q0 -106 -71 -174.5t-179 -68.5t-179 68t-71 170v497h130zM214 946h145l105 -144h-118l-59 99l-58 -99h-119z" />
    <glyph glyph-name="Udieresis" unicode="&#xdc;" horiz-adv-x="575" 
d="M203 893q27 0 47 -20q20 -18 20 -47t-19 -48t-48 -19t-48 19t-19 48q0 27 19.5 47t47.5 20zM377 893q29 0 48 -19t19 -48t-19 -48t-48 -19q-27 0 -47 18.5t-20 48.5q0 27 20 47t47 20zM168 721v-506q0 -48 34 -82q35 -32 87 -32q51 0 85.5 33.5t34.5 86.5v500h129v-492
q0 -106 -71 -174.5t-179 -68.5t-179 68t-71 170v497h130z" />
    <glyph glyph-name="germandbls" unicode="&#xdf;" horiz-adv-x="485" 
d="M38 518q0 85 63 148.5t147 63.5t145 -62.5t61 -148.5q0 -56 -21 -86q-9 -12 -18.5 -22.5t-13.5 -14.5l-32 -20q35 -15 66 -47.5t31 -112.5q0 -106 -67.5 -165t-192.5 -59l-10 107h13q67 0 107 32.5t40 85.5q0 32 -16.5 57.5t-43 34.5t-73.5 9h-22v108l24 -1q61 0 88.5 23
t27.5 75q0 39 -27.5 66t-68.5 27q-40 0 -66.5 -27.5t-26.5 -67.5v-521h-114v518z" />
    <glyph glyph-name="agrave" unicode="&#xe0;" horiz-adv-x="570" 
d="M274 -9q-107 0 -181 72.5t-74 180.5q0 110 76 186t186 76t181 -76t71 -198v-232h-117v228q0 74 -38 118.5t-101 44.5q-57 0 -98 -42t-41 -99q0 -61 43.5 -103t107.5 -42q22 0 37 3.5t44 19.5v-118q-34 -12 -54 -15zM334 681l60 -144h-98l-120 144h158z" />
    <glyph glyph-name="aacute" unicode="&#xe1;" horiz-adv-x="570" 
d="M274 -9q-107 0 -181 72.5t-74 180.5q0 110 76 186t186 76t181 -76t71 -198v-232h-117v228q0 74 -38 118.5t-101 44.5q-57 0 -98 -42t-41 -99q0 -61 43.5 -103t107.5 -42q22 0 37 3.5t44 19.5v-118q-34 -12 -54 -15zM236 681h156l-118 -144h-97z" />
    <glyph glyph-name="acircumflex" unicode="&#xe2;" horiz-adv-x="570" 
d="M274 -9q-107 0 -181 72.5t-74 180.5q0 110 76 186t186 76t181 -76t71 -198v-232h-117v228q0 74 -38 118.5t-101 44.5q-57 0 -98 -42t-41 -99q0 -61 43.5 -103t107.5 -42q22 0 37 3.5t44 19.5v-118q-34 -12 -54 -15zM211 681h145l105 -144h-118l-59 99l-58 -99h-119z" />
    <glyph glyph-name="atilde" unicode="&#xe3;" horiz-adv-x="570" 
d="M274 -9q-107 0 -181 72.5t-74 180.5q0 110 76 186t186 76t181 -76t71 -198v-232h-117v228q0 74 -38 118.5t-101 44.5q-57 0 -98 -42t-41 -99q0 -61 43.5 -103t107.5 -42q22 0 37 3.5t44 19.5v-118q-34 -12 -54 -15zM215 657l29 -3l52 -18q18 -6 30.5 -9.5t21.5 -4.5
q25 0 34 36h68q0 -56 -26 -89t-67 -33q-20 0 -76 19l-30 10q-18 6 -29 6q-30 0 -34 -34h-68q0 56 26 88t69 32z" />
    <glyph glyph-name="adieresis" unicode="&#xe4;" horiz-adv-x="570" 
d="M274 -9q-107 0 -181 72.5t-74 180.5q0 110 76 186t186 76t181 -76t71 -198v-232h-117v228q0 69 -39.5 116t-101.5 47q-57 0 -97 -41q-20 -21 -30 -45t-10 -55q0 -61 43.5 -103t108.5 -42q23 0 36 4q15 3 44 19v-118q-34 -12 -54 -15zM198 666q27 0 46.5 -19t19.5 -47
q0 -27 -19 -46t-47 -19q-27 0 -46 19t-19 46q0 26 18 46t47 20zM368 666q26 0 45 -19t19 -47q0 -27 -19 -46t-45 -19t-47 18q-19 19 -19 47q0 27 19 46.5t47 19.5z" />
    <glyph glyph-name="aring" unicode="&#xe5;" horiz-adv-x="570" 
d="M274 -9q-107 0 -181 72.5t-74 180.5q0 110 76 186t186 76t181 -76t71 -198v-232h-117v228q0 69 -39.5 116t-101.5 47q-57 0 -97 -41q-20 -21 -30 -45t-10 -55q0 -61 43.5 -103t108.5 -42q23 0 36 4q15 3 44 19v-118q-34 -12 -54 -15zM275 707q36 0 62 -26t26 -64
q0 -36 -26 -62t-62 -26t-64 25q-26 26 -26 63q0 38 26 64t64 26zM229 618q0 -18 13 -32q15 -13 32 -13q18 0 31 13t13 32q0 17 -12.5 31t-31.5 14q-18 0 -31.5 -13.5t-13.5 -31.5z" />
    <glyph glyph-name="ae" unicode="&#xe6;" horiz-adv-x="914" 
d="M525 454q56 48 141 48q80 0 127 -31.5t66 -55.5q16 -20 40 -70l-263 -200l-53 67l182 139q-38 44 -91 44q-60 0 -106.5 -46t-46.5 -105q0 -55 43.5 -100t97.5 -45q75 0 132 75l92 -54q-30 -50 -62 -76q-36 -26 -73 -39t-79 -13t-70.5 9.5t-79.5 42.5v-44h-106v228
q0 69 -39.5 116t-100.5 47q-56 0 -98 -42q-20 -21 -30 -45t-10 -55q0 -60 43.5 -102t108.5 -42q23 0 36 4q15 3 44 19v-118q-34 -12 -54 -15l-42 -4q-107 0 -181 72.5t-74 179.5q0 111 76 187t187 76q45 0 85 -15t63 -37q3 -2 17 -19q10 -12 12 -14l18 -36q12 30 21.5 42.5
t26.5 26.5z" />
    <glyph glyph-name="ccedilla" unicode="&#xe7;" horiz-adv-x="326" 
d="M305 385l-23 1q-56 0 -97 -41t-41 -97t42.5 -99.5t97.5 -43.5l21 1v-112l-22 -2q-111 0 -187.5 71t-76.5 178q0 105 75.5 181.5t181.5 76.5l29 -1v-113zM209 -27h96v-83q0 -93 -89 -93h-5v44q38 0 43 42h-45v90z" />
    <glyph glyph-name="egrave" unicode="&#xe8;" horiz-adv-x="521" 
d="M243 145l-54 67l183 139q-38 44 -92 44q-60 0 -106 -46t-46 -105q0 -57 43 -100t100 -43q75 0 129 73l94 -54l-32 -47q-8 -11 -54.5 -46t-135.5 -35q-109 0 -181 71.5t-72 180.5q0 110 72.5 184t183.5 74q78 0 125.5 -32.5t65 -54t40.5 -70.5zM309 681l60 -144h-98
l-120 144h158z" />
    <glyph glyph-name="eacute" unicode="&#xe9;" horiz-adv-x="521" 
d="M243 145l-54 67l183 139q-38 44 -92 44q-60 0 -106 -46t-46 -105q0 -57 43 -100t100 -43q75 0 129 73l94 -54l-32 -47q-8 -11 -54.5 -46t-135.5 -35q-109 0 -181 71.5t-72 180.5q0 110 72.5 184t183.5 74q78 0 125.5 -32.5t65 -54t40.5 -70.5zM211 681h156l-118 -144h-97
z" />
    <glyph glyph-name="ecircumflex" unicode="&#xea;" horiz-adv-x="521" 
d="M243 145l-54 67l183 139q-38 44 -92 44q-60 0 -106 -46t-46 -105q0 -57 43 -100t100 -43q75 0 129 73l94 -54l-32 -47q-8 -11 -54.5 -46t-135.5 -35q-109 0 -181 71.5t-72 180.5q0 110 72.5 184t183.5 74q78 0 125.5 -32.5t65 -54t40.5 -70.5zM187 681h145l105 -144h-118
l-59 99l-58 -99h-119z" />
    <glyph glyph-name="edieresis" unicode="&#xeb;" horiz-adv-x="521" 
d="M243 145l-54 67l183 139q-38 44 -92 44q-60 0 -106 -46t-46 -105q0 -57 43 -100t100 -43q75 0 129 73l94 -54l-32 -47q-8 -11 -54.5 -46t-135.5 -35q-109 0 -181 71.5t-72 180.5q0 110 72.5 184t183.5 74q78 0 125.5 -32.5t65 -54t40.5 -70.5zM176 666q27 0 46.5 -19
t19.5 -47q0 -27 -19 -46t-47 -19q-27 0 -46 19t-19 46q0 26 18 46t47 20zM346 666q26 0 45 -19t19 -47q0 -27 -19 -46t-45 -19t-47 18q-19 19 -19 47q0 27 19 46.5t47 19.5z" />
    <glyph glyph-name="igrave" unicode="&#xec;" horiz-adv-x="191" 
d="M38 491h116v-491h-116v491zM146 681l60 -144h-98l-120 144h158z" />
    <glyph glyph-name="iacute" unicode="&#xed;" horiz-adv-x="191" 
d="M38 491h116v-491h-116v491zM48 681h156l-118 -144h-97z" />
    <glyph glyph-name="icircumflex" unicode="&#xee;" horiz-adv-x="191" 
d="M38 491h116v-491h-116v491zM23 681h145l105 -144h-118l-59 99l-58 -99h-119z" />
    <glyph glyph-name="idieresis" unicode="&#xef;" horiz-adv-x="191" 
d="M38 491h116v-491h-116v491zM12 666q27 0 46.5 -19t19.5 -47q0 -27 -19 -46t-47 -19q-27 0 -46 19t-19 46q0 26 18 46t47 20zM182 666q26 0 45 -19t19 -47q0 -27 -19 -46t-45 -19t-47 18q-19 19 -19 47q0 27 19 46.5t47 19.5z" />
    <glyph glyph-name="ntilde" unicode="&#xf1;" horiz-adv-x="538" 
d="M38 278q0 98 64.5 159.5t166.5 61.5t167 -61t65 -160v-278h-116v275q0 50 -32.5 83t-82.5 33q-52 0 -84 -32t-32 -84v-275h-116v278zM199 657l29 -3l52 -18q18 -6 30.5 -9.5t21.5 -4.5q25 0 34 36h68q0 -56 -26 -89t-67 -33q-20 0 -76 19l-30 10q-18 6 -29 6
q-30 0 -34 -34h-68q0 56 26 88t69 32z" />
    <glyph glyph-name="ograve" unicode="&#xf2;" horiz-adv-x="547" 
d="M274 505q106 0 180 -74t74 -182q0 -109 -74 -183.5t-182 -74.5q-104 0 -178.5 75.5t-74.5 182.5q0 108 74 182t181 74zM138 246q0 -57 40.5 -100t95.5 -43q53 0 94 43t41 102q0 58 -40 101t-95 43q-56 0 -96 -43t-40 -103zM322 681l60 -144h-98l-120 144h158z" />
    <glyph glyph-name="oacute" unicode="&#xf3;" horiz-adv-x="547" 
d="M274 505q106 0 180 -74t74 -182q0 -109 -74 -183.5t-182 -74.5q-104 0 -178.5 75.5t-74.5 182.5q0 108 74 182t181 74zM138 246q0 -57 40.5 -100t95.5 -43q53 0 94 43t41 102q0 58 -40 101t-95 43q-56 0 -96 -43t-40 -103zM224 681h156l-118 -144h-97z" />
    <glyph glyph-name="ocircumflex" unicode="&#xf4;" horiz-adv-x="547" 
d="M274 505q106 0 180 -74t74 -182q0 -109 -74 -183.5t-182 -74.5q-104 0 -178.5 75.5t-74.5 182.5q0 108 74 182t181 74zM138 246q0 -57 40.5 -100t95.5 -43q53 0 94 43t41 102q0 58 -40 101t-95 43q-56 0 -96 -43t-40 -103zM200 681h145l105 -144h-118l-59 99l-58 -99
h-119z" />
    <glyph glyph-name="otilde" unicode="&#xf5;" horiz-adv-x="547" 
d="M274 505q106 0 180 -74t74 -182q0 -109 -74 -183.5t-182 -74.5q-104 0 -178.5 75.5t-74.5 182.5q0 108 74 182t181 74zM138 246q0 -57 40.5 -100t95.5 -43q53 0 94 43t41 102q0 58 -40 101t-95 43q-56 0 -96 -43t-40 -103zM203 657l29 -3l52 -18q18 -6 30.5 -9.5
t21.5 -4.5q25 0 34 36h68q0 -56 -26 -89t-67 -33q-20 0 -76 19l-30 10q-18 6 -29 6q-30 0 -34 -34h-68q0 56 26 88t69 32z" />
    <glyph glyph-name="odieresis" unicode="&#xf6;" horiz-adv-x="547" 
d="M274 505q106 0 180 -74t74 -182q0 -109 -74 -183.5t-182 -74.5q-104 0 -178.5 75.5t-74.5 182.5q0 108 74 182t181 74zM188 666q27 0 46.5 -19t19.5 -47q0 -27 -19 -46t-47 -19q-27 0 -46 19t-19 46q0 26 18 46t47 20zM358 666q27 0 46 -19t19 -47q0 -27 -19 -46t-46 -19
q-26 0 -47 18q-19 19 -19 47q0 27 19 46.5t47 19.5zM138 246q0 -57 40.5 -100t95.5 -43q53 0 94 43t41 102q0 58 -40 101t-95 43q-56 0 -96 -43t-40 -103z" />
    <glyph glyph-name="divide" unicode="&#xf7;" horiz-adv-x="594" 
d="M275 158q24 0 40 -16t16 -41q0 -24 -17 -40q-15 -17 -39 -17t-41 17q-16 19 -16 40q0 24 18 40.5t39 16.5zM506 202h-463v68h463v-68zM275 427q24 0 40 -17.5t16 -39.5q0 -24 -17 -40q-15 -17 -39 -17t-41 16q-16 18 -16 41q0 24 18 40.5t39 16.5z" />
    <glyph glyph-name="oslash" unicode="&#xf8;" horiz-adv-x="577" 
d="M85 92l-18 30q-30 57 -30 124q0 108 72 184t180 76q49 0 89 -17q39 -15 83 -53l61 57l36 -40l-62 -56l18 -31l18 -43q12 -32 12 -78q0 -104 -74 -179t-179 -75q-10 0 -22.5 1t-24.5 4q-24 3 -47 13l-37 17l-39 26l-65 -60l-37 40zM208 133q40 -31 81 -31q52 0 94.5 42.5
t42.5 99.5q0 34 -17 71zM375 357q-22 17 -42 24.5t-44 7.5q-55 0 -94.5 -39.5t-39.5 -99.5q0 -35 18 -76z" />
    <glyph glyph-name="ugrave" unicode="&#xf9;" horiz-adv-x="538" 
d="M501 213q0 -98 -65 -160t-167 -62q-101 0 -166 62t-65 160v278h116v-275q0 -51 32 -83t83 -32t83.5 31.5t32.5 83.5v275h116v-278zM318 681l60 -144h-98l-120 144h158z" />
    <glyph glyph-name="uacute" unicode="&#xfa;" horiz-adv-x="538" 
d="M501 213q0 -98 -65 -160t-167 -62q-101 0 -166 62t-65 160v278h116v-275q0 -51 32 -83t83 -32t83.5 31.5t32.5 83.5v275h116v-278zM220 681h156l-118 -144h-97z" />
    <glyph glyph-name="ucircumflex" unicode="&#xfb;" horiz-adv-x="538" 
d="M501 213q0 -98 -65 -160t-167 -62q-101 0 -166 62t-65 160v278h116v-275q0 -51 32 -83t83 -32t83.5 31.5t32.5 83.5v275h116v-278zM195 681h145l105 -144h-118l-59 99l-58 -99h-119z" />
    <glyph glyph-name="udieresis" unicode="&#xfc;" horiz-adv-x="538" 
d="M501 213q0 -98 -65 -160t-167 -62q-101 0 -166 62t-65 160v278h116v-275q0 -51 32 -83t83 -32t83.5 31.5t32.5 83.5v275h116v-278zM185 666q27 0 46.5 -19t19.5 -47q0 -27 -19 -46t-47 -19q-27 0 -46 19t-19 46q0 26 18 46t47 20zM355 666q26 0 45 -19t19 -47
q0 -27 -19 -46t-45 -19t-47 18q-19 19 -19 47q0 27 19 46.5t47 19.5z" />
    <glyph glyph-name="ydieresis" unicode="&#xff;" horiz-adv-x="461" 
d="M114 491l58 -321q9 -62 57 -62q44 0 59 63l59 320h118l-68 -358q-18 -93 -108 -128v-219h-117v219q-89 27 -110 130l-67 356h119zM146 666q27 0 46.5 -19t19.5 -47q0 -27 -19 -46t-47 -19q-27 0 -46 19t-19 46q0 26 18 46t47 20zM316 666q26 0 45 -19t19 -47
q0 -27 -19 -46t-45 -19t-47 18q-19 19 -19 47q0 27 19 46.5t47 19.5z" />
    <glyph glyph-name="c293" unicode="&#x125;" horiz-adv-x="323" 
d="M19 119l25 -8l19 -2q41 0 69.5 22.5t28.5 56.5q0 11 -5 28.5t-7.5 25t-7.5 17.5l-89 180q-23 46 -23 96q0 83 60 138t152 55l36 -3l27 -5v-121l-37 5q-41 0 -73 -21q-29 -21 -29 -53q0 -15 5.5 -34.5t15.5 -38.5l86 -177q31 -64 31 -114q0 -75 -60.5 -126.5t-154.5 -51.5
q-28 0 -69 10v121zM104 945l58 -99l59 99h118l-105 -145h-145l-104 145h119z" />
    <glyph glyph-name="c294" unicode="&#x126;" horiz-adv-x="349" 
d="M95 125q34 -26 50 -26q14 0 26 12t12 28q0 18 -18 39l-83 99q-37 43 -37 92q0 57 44 95t111 38q39 0 65 -9.5t59 -37.5l-63 -80q-29 21 -50 21q-14 0 -26 -12q-8 -10 -10 -27q0 -14 20 -37l79 -95q36 -45 36 -99q0 -55 -42.5 -94.5t-107.5 -39.5q-39 0 -70 10t-65 35z
M117 680l58 -99l59 99h118l-105 -145h-145l-104 145h119z" />
    <glyph glyph-name="c295" unicode="&#x127;" horiz-adv-x="524" 
d="M91 0q-34 0 -54.5 15.5t-20.5 43.5q0 15 22 52l297 493h-295v117h408q27 0 43.5 -19t16.5 -47q0 -20 -15 -47l-302 -492h299v-116h-399zM203 945l58 -99l59 99h118l-105 -145h-145l-104 145h119z" />
    <glyph glyph-name="c296" unicode="&#x128;" horiz-adv-x="449" 
d="M88 0q-72 0 -72 59q0 14 9 29l27 36l211 260h-227v107h323q31 0 51 -17.5t20 -45.5q0 -29 -24 -56l-222 -265h227v-107h-323zM166 680l58 -99l59 99h118l-105 -145h-145l-104 145h119z" />
    <glyph glyph-name="dotlessi" unicode="&#x131;" horiz-adv-x="191" 
d="M38 491h116v-491h-116v491z" />
    <glyph glyph-name="hungarumlaut" unicode="&#x2ba;" horiz-adv-x="216" 
d="M59 681h156l-118 -144h-97z" />
    <glyph glyph-name="caron" unicode="&#x2c7;" horiz-adv-x="355" 
d="M119 680l58 -99l59 99h118l-105 -145h-145l-104 145h119z" />
    <glyph glyph-name="macron" unicode="&#x2c9;" horiz-adv-x="303" 
d="M0 626h303v-90h-303v90z" />
    <glyph glyph-name="breve" unicode="&#x2d8;" horiz-adv-x="316" 
d="M82 681q11 -63 76 -63q64 0 76 63h82q-7 -65 -50 -105t-108 -40q-44 0 -84 24t-54.5 54t-19.5 67h82z" />
    <glyph glyph-name="dotaccent" unicode="&#x2d9;" horiz-adv-x="226" 
d="M162 908l63 -149h-101l-124 149h162z" />
    <glyph glyph-name="ring" unicode="&#x2da;" horiz-adv-x="178" 
d="M90 707q36 0 62 -26t26 -64q0 -36 -26 -62t-62 -26t-64 25q-26 26 -26 63q0 38 26 64t64 26zM44 618q0 -18 13 -32q15 -13 32 -13q18 0 31 13t13 32q0 18 -12.5 31.5t-31.5 13.5q-18 0 -31.5 -13.5t-13.5 -31.5z" />
    <glyph glyph-name="ogonek" unicode="&#x2db;" horiz-adv-x="360" 
d="M0 360l360 -360h-360v360z" />
    <glyph glyph-name="circumflex" unicode="&#x302;" horiz-adv-x="355" 
d="M104 681h145l105 -144h-118l-59 99l-58 -99h-119z" />
    <glyph glyph-name="tilde" unicode="&#x303;" horiz-adv-x="330" 
d="M95 657l29 -3l52 -18q18 -6 30.5 -9.5t21.5 -4.5q25 0 34 36h68q0 -56 -26 -89t-67 -33q-20 0 -76 19l-30 10q-18 6 -29 6q-30 0 -34 -34h-68q0 56 26 88t69 32z" />
    <glyph glyph-name="summation" unicode="&#x3a3;" horiz-adv-x="771" 
d="M618 643l15 -129h-44q-32 105 -85 144t-169 39h-132l315 -431l-344 -394h187q64 0 104.5 7.5t67.5 24.5q50 30 83 116h45l-30 -130l-2 -7q-23 -99 -111 -99h-482l389 446l-375 514h460q64 0 82 -15q16 -11 26 -86z" />
    <glyph glyph-name="Omega" unicode="&#x3a9;" horiz-adv-x="830" 
d="M593 90q48 0 68 18.5t20 67.5h23v-176h-272v180q76 15 122 77t46 151q0 106 -59 168.5t-157 62.5q-97 0 -156.5 -62.5t-59.5 -168.5q0 -91 44 -150.5t124 -77.5v-180h-272v176h23q0 -48 19 -67t69 -19h123v59q-118 21 -183 89t-65 170q0 120 93 193.5t241 73.5
q149 0 241.5 -73t92.5 -194q0 -100 -63.5 -167.5t-184.5 -91.5v-59h123z" />
    <glyph glyph-name="pi" unicode="&#x3c0;" horiz-adv-x="594" 
d="M404 373l-1 -24l-3 -150v-40q0 -86 8.5 -106t30.5 -20q26 0 42 30t16 88h25v-5q0 -80 -26 -118t-80 -38q-55 0 -80 40q-11 19 -17 60t-6 104l1 78l3 104l-50 1l-77 2q0 -237 -23 -313t-80 -76q-34 0 -53 29q-17 29 -17 86v19h24q0 -26 9 -39t28 -13q42 0 54 47t18 110
t6 150h-22q-39 0 -60 -14q-21 -12 -27 -39h-23q0 34 9.5 57.5t36.5 44.5t113 21l102 -3l152 -3q34 0 48.5 6.5t17.5 21.5l23 1q0 -51 -23.5 -75.5t-74.5 -24.5h-14z" />
    <glyph glyph-name="partialdiff" unicode="&#x2202;" horiz-adv-x="534" 
d="M358 287l6 28l3 31l3 89q0 85 -15.5 126t-47.5 41q-18 0 -50 -35t-56 -35q-15 0 -26 7q-8 7 -11 25q0 27 30 50q30 21 72 21q76 0 110 -53t47 -102.5t13 -112.5q0 -163 -64 -271.5t-158 -108.5q-66 0 -109 51t-43 137q0 81 53 143t125 62q44 0 72 -21.5t46 -71.5z
M256 349q-50 0 -86 -60q-34 -62 -34 -161q0 -56 21.5 -87.5t62.5 -31.5q53 0 87 62.5t34 152.5q0 57 -22 91t-63 34z" />
    <glyph glyph-name="Delta" unicode="&#x2206;" horiz-adv-x="662" 
d="M595 0h-574l276 672h22zM92 45h373l-186 459z" />
    <glyph glyph-name="product" unicode="&#x220f;" horiz-adv-x="890" 
d="M118 -176v880h-88v40h767v-40h-88v-880h88v-40h-264v40h84v880h-407v-880h84v-40h-264v40h88z" />
    <glyph glyph-name="fraction" unicode="&#x2215;" horiz-adv-x="334" 
d="M294 721h77l-331 -721h-76z" />
    <glyph glyph-name="periodcentered" unicode="&#x2219;" horiz-adv-x="237" 
d="M118 358q33 0 55 -22t22 -55q0 -32 -21.5 -55t-55.5 -23q-31 0 -54 23t-23 55t22.5 54.5t54.5 22.5z" />
    <glyph glyph-name="radical" unicode="&#x221a;" horiz-adv-x="594" 
d="M594 764h-57l-290 -784h-32l-156 431l-61 -22l-12 39l138 48l125 -346l252 681h93v-47z" />
    <glyph glyph-name="infinity" unicode="&#x221e;" horiz-adv-x="771" 
d="M366 238q-33 -61 -72 -93q-19 -16 -39.5 -23.5t-45.5 -7.5q-66 0 -111 52.5t-45 131.5q0 83 41 134.5t105 51.5q46 0 82 -29.5t66 -94.5q30 62 69 93q20 15 41.5 23t46.5 8q63 0 109 -53q23 -26 34.5 -58.5t11.5 -72.5q0 -84 -40 -135t-105 -51q-45 0 -84 30
q-36 30 -64 94zM330 327q-26 46 -59 69.5t-76 23.5q-52 0 -84.5 -35t-32.5 -90q0 -54 29 -89q31 -34 77 -34q39 0 71 31.5t75 123.5zM383 271q22 -45 57.5 -69t77.5 -24q52 0 84.5 35t32.5 90q0 54 -30.5 88.5t-79.5 34.5q-35 0 -71 -36q-32 -35 -71 -119z" />
    <glyph glyph-name="integral" unicode="&#x222b;" horiz-adv-x="296" 
d="M283 757q36 0 58.5 -18.5t22.5 -48.5q0 -20 -12.5 -34t-36.5 -14q-28 0 -43.5 31.5t-29.5 32.5q-57 0 -57 -310l-3 -98v-16v-13v-12q0 -20 -1 -40t-4 -39q0 -26 -3.5 -56.5t-11.5 -87t-29 -103.5t-60.5 -79.5t-81.5 -32.5q-35 0 -58 18.5t-23 48.5q0 21 12.5 34t36.5 13
q28 0 43 -30t31 -33q57 0 57 324l2 84q0 21 2 67.5t2 48.5q0 23 3.5 54t11 89.5t30.5 106.5q21 51 59.5 82t82.5 31z" />
    <glyph glyph-name="approxequal" unicode="&#x2248;" horiz-adv-x="594" 
d="M15 100v77q23 14 43.5 24.5t43.5 19.5q39 14 74 14q43 0 114.5 -24t99.5 -24q26 0 59.5 15t84.5 52v-78q-22 -14 -41 -24.5t-36 -17.5q-36 -13 -72 -13q-18 0 -41 5t-63 18q-72 24 -116 24q-29 0 -55 -11.5t-47 -24.5q-16 -9 -23.5 -14t-24.5 -18zM15 219v77l43 25l51 21
q31 11 66 11q42 0 115 -23.5t100 -23.5q29 0 60 14q16 7 36.5 19.5t47.5 32.5v-77l-41 -24l-49 -22q-26 -9 -59 -9q-36 0 -106 23.5t-109 23.5q-37 0 -66 -14q-28 -11 -89 -54z" />
    <glyph glyph-name="notequal" unicode="&#x2260;" horiz-adv-x="594" 
d="M413 336h91v-64h-149l-73 -72h222v-64h-281l-118 -118l-43 44l74 74h-91v64h150l73 72h-223v64h281l118 118l44 -44z" />
    <glyph glyph-name="lessequal" unicode="&#x2264;" horiz-adv-x="594" 
d="M506 18h-463v68h463v-68zM162 280l344 -107v-70l-462 145v65l462 145v-70z" />
    <glyph glyph-name="greaterequal" unicode="&#x2265;" horiz-adv-x="594" 
d="M506 18h-463v68h463v-68zM506 248l-463 -145v70l344 107l-344 108v70l463 -145v-65z" />
    <glyph glyph-name="lozenge" unicode="&#x25ca;" horiz-adv-x="534" 
d="M247 807l244 -518l-244 -522l-244 522zM247 688l-188 -399l188 -403l188 403z" />
    <glyph glyph-name="apple" unicode="&#xf000;" horiz-adv-x="854" 
d="M408 594l-1 7v11q0 60 45.5 111.5t116.5 64.5v-12l1 -18q0 -62 -50.5 -113.5t-99.5 -51.5h-4zM735 197q-28 -60 -53.5 -102.5t-47.5 -65.5q-46 -46 -99 -46q-25 0 -65.5 16t-58.5 16q-23 0 -65 -16t-61 -16q-30 0 -63 21l-31 27l-48 60q-30 43 -60 121q-14 41 -21 76.5
t-7 71.5q0 107 61.5 174.5t157.5 67.5q16 0 31.5 -3t26.5 -6.5t29 -11.5q11 -4 26.5 -8.5t22.5 -4.5q20 0 62 17t72 17q56 0 97 -20q42 -18 78 -60q-47 -30 -74 -71q-24 -39 -24 -89q0 -53 30 -97t84 -68z" />
    <glyph glyph-name="fi" unicode="&#xf001;" 
d="M158 519l136 -136l140 139l75 -76l-139 -139l136 -136l-76 -76l-136 136l-135 -135l-76 75l135 136l-136 136z" />
    <glyph glyph-name="fl" unicode="&#xf002;" horiz-adv-x="248" 
d="M57 721h132v-721h-132v721z" />
    <glyph glyph-name=".null" horiz-adv-x="0" 
 />
    </font>
</defs>
</svg>
